<svg xmlns="http://www.w3.org/2000/svg" xmlns:xlink="http://www.w3.org/1999/xlink" width="375" viewBox="0 0 375 375" height="375" version="1.0"><defs><clipPath id="d"><path d="M 11 9 L 92 9 L 92 95 L 11 95 Z M 11 9"/></clipPath><clipPath id="e"><path d="M -1.339844 26.003906 L 76.875 -0.242188 L 103.601562 79.390625 L 25.386719 105.640625 Z M -1.339844 26.003906"/></clipPath><clipPath id="f"><path d="M -1.339844 26.003906 L 76.875 -0.242188 L 103.601562 79.390625 L 25.386719 105.640625 Z M -1.339844 26.003906"/></clipPath><clipPath id="g"><path d="M 12 10 L 84 10 L 84 68 L 12 68 Z M 12 10"/></clipPath><clipPath id="h"><path d="M -1.339844 26.003906 L 76.875 -0.242188 L 103.601562 79.390625 L 25.386719 105.640625 Z M -1.339844 26.003906"/></clipPath><clipPath id="i"><path d="M -1.339844 26.003906 L 76.875 -0.242188 L 103.601562 79.390625 L 25.386719 105.640625 Z M -1.339844 26.003906"/></clipPath><clipPath id="j"><path d="M 62 59 L 83 59 L 83 68 L 62 68 Z M 62 59"/></clipPath><clipPath id="k"><path d="M -1.339844 26.003906 L 76.875 -0.242188 L 103.601562 79.390625 L 25.386719 105.640625 Z M -1.339844 26.003906"/></clipPath><clipPath id="l"><path d="M -1.339844 26.003906 L 76.875 -0.242188 L 103.601562 79.390625 L 25.386719 105.640625 Z M -1.339844 26.003906"/></clipPath><clipPath id="m"><path d="M 59 62 L 90 62 L 90 75 L 59 75 Z M 59 62"/></clipPath><clipPath id="n"><path d="M -1.339844 26.003906 L 76.875 -0.242188 L 103.601562 79.390625 L 25.386719 105.640625 Z M -1.339844 26.003906"/></clipPath><clipPath id="o"><path d="M -1.339844 26.003906 L 76.875 -0.242188 L 103.601562 79.390625 L 25.386719 105.640625 Z M -1.339844 26.003906"/></clipPath><clipPath id="p"><path d="M 11 9 L 92 9 L 92 95 L 11 95 Z M 11 9"/></clipPath><clipPath id="q"><path d="M -1.339844 26.003906 L 76.875 -0.242188 L 103.601562 79.390625 L 25.386719 105.640625 Z M -1.339844 26.003906"/></clipPath><clipPath id="r"><path d="M -1.339844 26.003906 L 76.875 -0.242188 L 103.601562 79.390625 L 25.386719 105.640625 Z M -1.339844 26.003906"/></clipPath><clipPath id="c"><path d="M0 0H103V106H0z"/></clipPath><clipPath id="s"><path d="M 133.527344 77.335938 L 241.519531 77.335938 L 241.519531 225.648438 L 133.527344 225.648438 Z M 133.527344 77.335938"/></clipPath><clipPath id="t"><path d="M 157 213 L 231 213 L 231 229.1875 L 157 229.1875 Z M 157 213"/></clipPath><clipPath id="u"><path d="M 144 58.1875 L 227 58.1875 L 227 110 L 144 110 Z M 144 58.1875"/></clipPath><filter x="0%" y="0%" width="100%" xmlns:xlink="http://www.w3.org/1999/xlink" xlink:type="simple" xlink:actuate="onLoad" height="100%" id="a" xlink:show="other"><feColorMatrix values="0 0 0 0 1 0 0 0 0 1 0 0 0 0 1 0 0 0 1 0" color-interpolation-filters="sRGB"/></filter><mask id="b"><g filter="url(#a)"><path fill-opacity=".788" d="M-37.5 -37.5H412.5V412.5H-37.5z"/></g></mask></defs><g mask="url(#b)"><g><g clip-path="url(#c)" transform="translate(203 26)"><g clip-path="url(#d)"><g clip-path="url(#e)"><g clip-path="url(#f)"><path fill="#FFDE32" d="M 77.042969 43.480469 C 79.03125 44.367188 80.925781 45.488281 82.671875 46.851562 C 87.238281 50.410156 90.570312 55.53125 91.253906 61.332031 C 91.933594 67.089844 89.996094 72.867188 86.75 77.601562 C 83.039062 83.011719 77.582031 86.871094 71.605469 89.472656 C 65.234375 92.25 58.160156 93.878906 51.25 94.558594 C 45.296875 95.144531 38.945312 94.601562 34.027344 90.917969 C 29.515625 87.539062 26.894531 82.113281 26.199219 76.605469 C 25.792969 73.390625 26.09375 70.125 26.957031 67.003906 C 24.277344 67.839844 21.367188 68.402344 18.601562 67.859375 C 13.195312 66.800781 10.328125 60.753906 12.503906 55.816406 C 13.554688 53.429688 15.660156 51.382812 18.195312 50.632812 C 20.140625 50.050781 22.167969 50.25 24.050781 50.894531 C 21.847656 48.671875 20.058594 46.027344 18.835938 43.148438 C 16.414062 37.460938 16.574219 30.988281 19.511719 25.496094 C 22.667969 19.582031 28.542969 16.019531 35.300781 16.257812 C 42.109375 16.496094 48.359375 19.597656 53.140625 24.265625 C 53.515625 19.675781 56.03125 15.222656 59.714844 12.453125 C 63.183594 9.847656 67.796875 9.085938 71.984375 10.066406 C 76.441406 11.109375 80.058594 14.097656 82.066406 18.167969 C 84.1875 22.460938 84.472656 27.433594 83.304688 32.046875 C 82.222656 36.339844 79.878906 40.113281 77.042969 43.480469 Z M 77.042969 43.480469"/></g></g></g><g clip-path="url(#g)"><g clip-path="url(#h)"><g clip-path="url(#i)"><path fill="#FFDE32" d="M 53.273438 25.675781 C 57.378906 29.921875 60.214844 35.355469 61.160156 41.199219 C 60.234375 41.316406 59.3125 41.46875 58.402344 41.660156 C 58.332031 41.644531 58.257812 41.644531 58.171875 41.671875 C 58.074219 41.703125 57.976562 41.742188 57.878906 41.773438 C 54.105469 42.617188 50.464844 44.0625 46.953125 45.789062 C 46.335938 46.09375 45.726562 46.402344 45.117188 46.722656 C 45.109375 46.726562 45.097656 46.726562 45.089844 46.730469 C 45.078125 46.738281 45.0625 46.746094 45.050781 46.753906 C 44.082031 47.257812 43.117188 47.773438 42.15625 48.292969 C 38.8125 50.316406 35.714844 52.753906 33.148438 55.667969 C 22.203125 51.875 14.984375 38.972656 19.398438 27.902344 C 21.722656 22.074219 26.75 17.710938 33.152344 17.203125 C 39.652344 16.691406 46.199219 19.5 51.074219 23.621094 C 51.796875 24.230469 52.492188 24.875 53.152344 25.550781 C 53.179688 25.605469 53.222656 25.644531 53.273438 25.675781 Z M 26.109375 52.738281 C 26.035156 52.746094 25.953125 52.730469 25.867188 52.683594 C 22.910156 51.066406 19.339844 50.488281 16.402344 52.496094 C 13.871094 54.226562 12.300781 57.339844 12.707031 60.398438 C 13.128906 63.550781 15.511719 66.273438 18.652344 66.945312 C 21.511719 67.550781 24.546875 66.855469 27.28125 65.953125 C 27.929688 63.917969 28.820312 61.957031 29.898438 60.121094 C 30.675781 58.804688 31.5625 57.566406 32.527344 56.398438 C 30.191406 55.535156 28.03125 54.285156 26.109375 52.738281 Z M 70.921875 10.769531 C 66.71875 10.046875 62.324219 11.167969 59.167969 14.085938 C 56.121094 16.902344 54.085938 20.980469 54.011719 25.136719 C 58.1875 29.550781 61.097656 35.195312 62.0625 41.097656 C 63.292969 40.980469 64.542969 40.933594 65.804688 40.96875 C 66.863281 41 67.910156 41.085938 68.953125 41.222656 C 68.984375 41.222656 69.015625 41.21875 69.046875 41.21875 C 69.121094 41.21875 69.1875 41.230469 69.246094 41.257812 C 71.628906 41.59375 73.957031 42.210938 76.167969 43.113281 C 79.195312 39.5625 81.652344 35.566406 82.625 30.964844 C 84.445312 22.335938 80.359375 12.390625 70.921875 10.769531 Z M 70.921875 10.769531"/></g></g></g><g clip-path="url(#j)"><g clip-path="url(#k)"><g clip-path="url(#l)"><path fill="#F5F5F5" d="M 82.0625 60.027344 C 82.191406 60.402344 81.984375 60.816406 81.605469 60.941406 C 81.222656 61.070312 80.8125 60.867188 80.683594 60.488281 C 80.558594 60.109375 80.765625 59.699219 81.144531 59.570312 C 81.527344 59.445312 81.9375 59.648438 82.0625 60.027344 Z M 62.832031 66.003906 C 62.449219 66.132812 62.246094 66.542969 62.371094 66.921875 C 62.5 67.300781 62.910156 67.503906 63.292969 67.375 C 63.671875 67.246094 63.878906 66.835938 63.75 66.457031 C 63.625 66.082031 63.210938 65.878906 62.832031 66.003906 Z M 64.152344 66.984375 C 63.988281 67.039062 63.902344 67.214844 63.957031 67.375 C 64.007812 67.535156 64.183594 67.625 64.347656 67.570312 C 64.511719 67.515625 64.597656 67.339844 64.542969 67.179688 C 64.488281 67.015625 64.316406 66.929688 64.152344 66.984375 Z M 82.464844 60.554688 C 82.304688 60.609375 82.214844 60.78125 82.269531 60.945312 C 82.324219 61.105469 82.5 61.191406 82.660156 61.136719 C 82.824219 61.082031 82.910156 60.910156 82.855469 60.746094 C 82.804688 60.585938 82.628906 60.5 82.464844 60.554688 Z M 82.464844 60.554688"/></g></g></g><g clip-path="url(#m)"><g clip-path="url(#n)"><g clip-path="url(#o)"><path fill="#FF5C50" d="M 65.339844 71.605469 C 65.582031 72.335938 64.53125 73.347656 62.988281 73.867188 C 61.441406 74.382812 59.992188 74.210938 59.746094 73.484375 C 59.503906 72.753906 60.554688 71.742188 62.101562 71.222656 C 63.644531 70.703125 65.09375 70.875 65.339844 71.605469 Z M 86.003906 62.914062 C 84.460938 63.433594 83.410156 64.445312 83.652344 65.175781 C 83.898438 65.902344 85.347656 66.074219 86.890625 65.558594 C 88.4375 65.039062 89.488281 64.027344 89.246094 63.296875 C 89 62.566406 87.550781 62.394531 86.003906 62.914062 Z M 86.003906 62.914062"/></g></g></g><g clip-path="url(#p)"><g clip-path="url(#q)"><g clip-path="url(#r)"><path fill="#6A4018" d="M 83.308594 32.042969 C 84.472656 27.425781 84.191406 22.453125 82.070312 18.160156 C 80.058594 14.09375 76.445312 11.101562 71.988281 10.058594 C 67.800781 9.078125 63.1875 9.84375 59.71875 12.449219 C 56.035156 15.21875 53.519531 19.671875 53.144531 24.257812 C 48.363281 19.589844 42.113281 16.488281 35.304688 16.25 C 28.546875 16.015625 22.671875 19.578125 19.511719 25.492188 C 16.582031 30.984375 16.417969 37.457031 18.839844 43.144531 C 20.066406 46.023438 21.851562 48.667969 24.054688 50.890625 C 22.171875 50.25 20.148438 50.046875 18.199219 50.628906 C 15.667969 51.382812 13.558594 53.425781 12.507812 55.8125 C 10.332031 60.75 13.199219 66.796875 18.605469 67.855469 C 21.375 68.398438 24.28125 67.835938 26.964844 67 C 26.097656 70.121094 25.796875 73.386719 26.203125 76.601562 C 26.898438 82.109375 29.523438 87.535156 34.03125 90.914062 C 38.949219 94.601562 45.300781 95.140625 51.253906 94.554688 C 58.160156 93.871094 65.238281 92.246094 71.613281 89.46875 C 77.585938 86.867188 83.042969 83.011719 86.753906 77.597656 C 90 72.863281 91.9375 67.085938 91.257812 61.328125 C 90.578125 55.527344 87.242188 50.40625 82.675781 46.847656 C 80.929688 45.484375 79.039062 44.367188 77.046875 43.476562 C 79.878906 40.113281 82.222656 36.339844 83.308594 32.042969 Z M 19.398438 27.902344 C 21.722656 22.074219 26.75 17.710938 33.152344 17.203125 C 39.652344 16.691406 46.199219 19.5 51.074219 23.621094 C 51.796875 24.230469 52.492188 24.875 53.152344 25.550781 C 53.179688 25.605469 53.222656 25.644531 53.273438 25.675781 C 57.378906 29.921875 60.214844 35.355469 61.160156 41.199219 C 60.234375 41.316406 59.3125 41.46875 58.402344 41.660156 C 58.332031 41.644531 58.257812 41.644531 58.171875 41.671875 C 58.074219 41.703125 57.976562 41.742188 57.878906 41.773438 C 54.105469 42.617188 50.464844 44.0625 46.953125 45.789062 C 46.335938 46.09375 45.726562 46.402344 45.117188 46.722656 C 45.109375 46.726562 45.097656 46.726562 45.089844 46.730469 C 45.078125 46.738281 45.0625 46.746094 45.050781 46.753906 C 44.082031 47.257812 43.117188 47.773438 42.15625 48.292969 C 38.8125 50.316406 35.714844 52.753906 33.148438 55.667969 C 22.203125 51.875 14.984375 38.972656 19.398438 27.902344 Z M 18.652344 66.941406 C 15.511719 66.273438 13.128906 63.550781 12.707031 60.398438 C 12.296875 57.339844 13.867188 54.226562 16.402344 52.496094 C 19.339844 50.488281 22.910156 51.066406 25.863281 52.683594 C 25.949219 52.730469 26.03125 52.746094 26.109375 52.738281 C 28.03125 54.285156 30.191406 55.535156 32.523438 56.394531 C 31.558594 57.5625 30.675781 58.800781 29.898438 60.121094 C 28.816406 61.953125 27.929688 63.914062 27.277344 65.949219 C 24.546875 66.851562 21.507812 67.550781 18.652344 66.941406 Z M 55.953125 92.984375 C 55.792969 93.011719 55.636719 93.039062 55.476562 93.066406 C 55.476562 93.066406 55.472656 93.066406 55.472656 93.066406 C 52.378906 93.410156 49.429688 93.148438 46.75 91.46875 C 43.453125 89.410156 40.832031 86.320312 39.0625 82.894531 C 35.171875 75.367188 35.265625 65.984375 37.5625 57.964844 C 38.84375 53.492188 41.441406 49.757812 45.582031 47.488281 C 48.167969 46.152344 50.820312 44.90625 53.554688 43.929688 C 47.886719 47.847656 44.945312 54.863281 44.53125 61.789062 C 43.949219 71.5 47.566406 81.753906 55.628906 87.601562 C 58.144531 89.425781 61.109375 90.832031 64.1875 91.109375 C 61.453125 91.898438 58.679688 92.507812 55.953125 92.984375 Z M 78.363281 45.125 C 83.371094 47.816406 87.636719 52.164062 89.484375 57.597656 C 91.304688 62.941406 90.464844 68.765625 87.96875 73.765625 C 85.984375 77.742188 83.1875 80.945312 79.882812 83.535156 C 79.859375 83.542969 79.835938 83.546875 79.8125 83.558594 C 77.835938 84.378906 75.800781 85.113281 73.652344 85.28125 C 71.121094 85.476562 68.632812 84.863281 66.335938 83.84375 C 62.242188 82.019531 58.875 78.769531 56.710938 74.875 C 54.773438 71.386719 53.300781 67.121094 53.296875 63.097656 C 53.296875 58.710938 54.691406 54.210938 57.015625 50.496094 C 59.597656 46.367188 63.808594 42.277344 68.964844 42.128906 C 72.238281 42.566406 75.429688 43.542969 78.363281 45.125 Z M 76.167969 43.109375 C 73.953125 42.210938 71.628906 41.59375 69.246094 41.257812 C 69.1875 41.230469 69.121094 41.214844 69.042969 41.214844 C 69.011719 41.214844 68.980469 41.21875 68.953125 41.21875 C 67.914062 41.082031 66.863281 40.996094 65.804688 40.96875 C 64.542969 40.933594 63.292969 40.980469 62.058594 41.097656 C 61.097656 35.195312 58.183594 29.550781 54.011719 25.136719 C 54.085938 20.976562 56.121094 16.898438 59.167969 14.082031 C 62.320312 11.164062 66.71875 10.042969 70.921875 10.765625 C 80.355469 12.390625 84.445312 22.332031 82.625 30.964844 C 81.652344 35.5625 79.195312 39.558594 76.167969 43.109375 Z M 63.089844 64.898438 C 61.902344 65.296875 61.261719 66.574219 61.65625 67.753906 C 62.054688 68.933594 63.335938 69.566406 64.519531 69.167969 C 65.707031 68.769531 66.347656 67.492188 65.953125 66.3125 C 65.554688 65.136719 64.273438 64.5 63.089844 64.898438 Z M 63.289062 67.375 C 62.910156 67.5 62.496094 67.296875 62.371094 66.917969 C 62.246094 66.542969 62.449219 66.128906 62.832031 66.003906 C 63.210938 65.875 63.621094 66.078125 63.75 66.457031 C 63.875 66.835938 63.671875 67.246094 63.289062 67.375 Z M 64.347656 67.570312 C 64.1875 67.625 64.011719 67.539062 63.957031 67.375 C 63.902344 67.214844 63.988281 67.039062 64.152344 66.984375 C 64.316406 66.929688 64.488281 67.015625 64.542969 67.179688 C 64.597656 67.339844 64.511719 67.515625 64.347656 67.570312 Z M 82.835938 62.738281 C 84.023438 62.339844 84.660156 61.058594 84.265625 59.882812 C 83.871094 58.703125 82.585938 58.070312 81.402344 58.46875 C 80.214844 58.867188 79.578125 60.144531 79.972656 61.324219 C 80.367188 62.5 81.648438 63.136719 82.835938 62.738281 Z M 82.855469 60.746094 C 82.910156 60.90625 82.824219 61.082031 82.660156 61.136719 C 82.5 61.191406 82.324219 61.105469 82.269531 60.945312 C 82.214844 60.785156 82.300781 60.609375 82.464844 60.554688 C 82.628906 60.5 82.804688 60.585938 82.855469 60.746094 Z M 81.144531 59.574219 C 81.527344 59.445312 81.9375 59.648438 82.066406 60.027344 C 82.191406 60.40625 81.984375 60.816406 81.605469 60.945312 C 81.226562 61.070312 80.8125 60.867188 80.6875 60.492188 C 80.558594 60.113281 80.765625 59.703125 81.144531 59.574219 Z M 78.492188 70.335938 C 78.664062 71.894531 77.75 73.515625 76.207031 74.007812 C 74.664062 74.5 72.976562 73.730469 72.210938 72.355469 C 71.929688 71.84375 72.6875 71.335938 72.96875 71.84375 C 74.316406 74.28125 77.894531 73.15625 77.582031 70.386719 C 77.515625 69.804688 78.425781 69.757812 78.492188 70.335938 Z M 78.492188 70.335938"/></g></g></g></g></g></g><g clip-path="url(#s)"><path fill="#7D901A" d="M 241.289062 177.023438 C 240.738281 161.039062 241.289062 113.457031 241.289062 113.457031 C 240.371094 103.902344 241.105469 94.902344 233.585938 87.921875 C 228.269531 82.777344 220.75 81.308594 214.328125 77.632812 L 155.546875 86.878906 C 147.78125 91.703125 136.265625 95.996094 134.925781 105.921875 L 134.394531 109.410156 C 132.785156 118.53125 133.855469 129.257812 134.125 138.378906 C 134.394531 148.574219 136.578125 181.390625 137 187.664062 C 137.6875 197.816406 141.34375 208.007812 147.304688 215.636719 C 149.984375 219.125 153.195312 221 157.480469 222.34375 C 157.480469 222.34375 162.421875 227.28125 194.714844 224.566406 C 227.007812 221.851562 229.484375 213.714844 230.117188 213.289062 C 230.746094 212.859375 235.535156 209.695312 237.191406 207.097656 C 239.6875 203.179688 240.769531 198.070312 241.289062 191.902344 C 241.710938 186.878906 241.472656 181.984375 241.289062 177.023438"/></g><path fill="#437B17" d="M 215.640625 145.238281 C 210.8125 134.492188 198.011719 128.367188 185.722656 128.316406 C 177.125 128.277344 168.777344 131.21875 163.585938 137.625 C 159.664062 142.46875 157.554688 153.867188 157.300781 160 C 157.054688 165.875 158.796875 171.351562 163.035156 175.515625 C 170.5 182.855469 182.421875 184.734375 192.03125 181.097656 C 204.9375 176.214844 222.742188 161.046875 215.640625 145.238281"/><path fill="#FFDE32" d="M 155.097656 99.871094 C 161.230469 103.277344 168.285156 104.449219 175.152344 105.375 C 177.210938 105.648438 179.273438 105.875 181.34375 106.050781 C 186.53125 106.476562 191.65625 106.109375 196.757812 105.148438 C 200.523438 104.4375 204.675781 103.917969 208.132812 102.183594 C 212.71875 99.894531 217.097656 96.941406 220.246094 92.828125 C 221.109375 91.710938 221.902344 90.480469 222.542969 89.222656 C 224.484375 85.441406 225.621094 80.910156 224.222656 76.757812 C 223.820312 75.59375 223.25 74.492188 222.613281 73.4375 C 221.335938 71.375 220.105469 69.738281 218.078125 68.347656 C 216.125 67.019531 213.949219 66.046875 211.699219 65.371094 C 205.316406 63.425781 198.523438 63.15625 191.890625 63.664062 C 191.074219 63.722656 190.257812 63.796875 189.441406 63.878906 C 181.996094 64.660156 174.644531 66.296875 167.671875 69.046875 C 163.136719 70.839844 158.375 72.878906 154.90625 76.414062 C 152.480469 78.894531 150.398438 81.738281 149.34375 85.082031 C 148.714844 87.074219 148.457031 89.554688 148.777344 91.628906 C 149.355469 95.367188 151.886719 98.09375 155.097656 99.871094"/><path fill="#FFDE32" d="M 234.539062 92.144531 C 230.773438 100.375 223.855469 105.394531 216.113281 109.589844 C 207.386719 114.316406 197.15625 117.300781 187.253906 117.796875 C 178.03125 118.253906 168.558594 116.402344 159.730469 113.835938 C 151.855469 111.542969 143.789062 108.042969 138.246094 101.792969 C 137.769531 101.261719 136.996094 102.042969 137.464844 102.570312 C 142.980469 108.785156 150.847656 112.222656 158.625 114.652344 C 168.109375 117.617188 178.371094 119.339844 188.316406 118.84375 C 198.101562 118.355469 208.023438 115.046875 216.664062 110.542969 C 224.589844 106.410156 231.6875 101.007812 235.492188 92.699219 C 235.785156 92.058594 234.835938 91.496094 234.539062 92.144531"/><path fill="#FFDE32" d="M 230.578125 136.808594 C 229.882812 134.488281 228.871094 132.242188 227.3125 130.375 C 226.6875 129.632812 225.933594 128.949219 224.925781 128.832031 C 223.875 128.707031 222.722656 129.011719 221.816406 129.558594 C 221.707031 129.621094 221.605469 129.691406 221.515625 129.769531 C 220.929688 130.214844 220.5 130.800781 220 131.339844 C 219.472656 131.910156 218.960938 132.480469 218.453125 133.0625 C 214.808594 137.265625 211.644531 141.894531 207.742188 145.878906 C 203.179688 150.523438 198.613281 155.324219 194.8125 160.667969 C 194.269531 161.390625 193.683594 162.078125 193.132812 162.789062 C 191.988281 164.25 190.882812 165.8125 190.203125 167.542969 C 190.191406 167.574219 190.179688 167.601562 190.167969 167.628906 C 184.140625 168.074219 178.042969 168.667969 172.132812 170.046875 C 171.242188 170.230469 170.351562 170.359375 169.46875 170.527344 C 167.644531 170.863281 165.785156 171.300781 164.132812 172.152344 C 164.066406 172.175781 164.011719 172.203125 163.957031 172.234375 C 163.148438 172.65625 162.335938 173.625 162.03125 174.480469 C 161.410156 176.210938 162.160156 178.273438 162.886719 179.855469 C 163.683594 181.585938 164.730469 183.199219 165.726562 184.820312 C 167.652344 187.933594 170.421875 189.972656 173.304688 192.113281 C 178.550781 195.828125 185.402344 196.695312 191.578125 195.660156 C 197.558594 194.632812 203.386719 191.351562 207.421875 186.988281 C 209.652344 184.691406 211.40625 182.214844 212.90625 179.449219 C 213.542969 178.273438 214.144531 177.0625 214.707031 175.855469 C 214.785156 175.6875 214.855469 175.515625 214.929688 175.347656 C 219.410156 173.730469 223.355469 170.632812 226.3125 166.984375 C 230.121094 162.253906 232.324219 155.929688 232.46875 149.980469 C 232.621094 146.78125 232.304688 143.761719 231.601562 140.695312 C 231.304688 139.390625 230.953125 138.085938 230.578125 136.808594"/><path fill="#E3CB20" d="M 191.59375 167.523438 C 192.539062 167.457031 193.480469 167.359375 194.421875 167.242188 C 193.484375 166.507812 192.511719 165.597656 191.808594 164.589844 C 191.742188 164.675781 191.683594 164.769531 191.625 164.855469 C 191.070312 165.707031 190.570312 166.597656 190.203125 167.546875 C 190.230469 167.570312 190.257812 167.59375 190.285156 167.621094 C 190.722656 167.585938 191.160156 167.554688 191.59375 167.523438"/><path fill="#E3CB20" d="M 220.898438 164.878906 C 215.5625 159.988281 209.960938 155.257812 204.148438 150.894531 C 208.046875 150.113281 211.953125 149.378906 215.910156 148.976562 C 219.351562 148.628906 222.894531 148.988281 226.332031 148.703125 C 226.460938 154.355469 224.667969 160.644531 220.898438 164.878906 Z M 226.347656 137.875 C 225.277344 135.246094 221.734375 129.910156 221.515625 129.769531 C 220.929688 130.214844 220.5 130.800781 220.003906 131.335938 C 219.652344 131.722656 219.300781 132.097656 218.96875 132.488281 C 218.859375 132.597656 218.761719 132.710938 218.664062 132.824219 C 222.328125 136.503906 225.824219 142.222656 226.261719 147.308594 C 226.273438 147.414062 226.273438 147.519531 226.28125 147.621094 C 222.328125 148.003906 218.226562 147.589844 214.257812 148.054688 C 210.796875 148.457031 207.363281 149.125 203.941406 149.8125 C 203.90625 149.851562 203.871094 149.890625 203.835938 149.929688 C 203.445312 150.339844 203.0625 150.75 202.675781 151.164062 C 202.691406 151.179688 202.707031 151.191406 202.722656 151.199219 C 203.347656 155.992188 204.292969 160.714844 205.007812 165.480469 C 205.367188 165.421875 205.726562 165.363281 206.085938 165.304688 C 205.414062 160.902344 204.558594 156.535156 203.941406 152.109375 C 209.558594 156.351562 214.984375 160.945312 220.144531 165.679688 C 219.070312 166.730469 217.839844 167.65625 216.503906 168.4375 C 216.507812 168.582031 216.507812 168.726562 216.503906 168.867188 C 216.488281 169.558594 216.414062 170.242188 216.300781 170.917969 C 219.691406 169.375 222.890625 167.324219 225.039062 164.242188 C 227.789062 160.300781 228.738281 155.257812 228.738281 150.53125 C 228.734375 146.03125 227.964844 141.8125 226.347656 137.875"/><path fill="#E3CB20" d="M 191.808594 164.589844 C 192.019531 164.289062 192.226562 163.988281 192.445312 163.695312 C 192.226562 163.988281 192.011719 164.285156 191.808594 164.589844"/><path fill="#E3CB20" d="M 213.703125 146.039062 C 216.433594 145.289062 219.199219 145.082031 222.019531 145.140625 C 222.726562 145.152344 222.726562 144.050781 222.019531 144.035156 C 219.101562 143.976562 216.230469 144.203125 213.414062 144.976562 C 212.726562 145.164062 213.019531 146.226562 213.703125 146.039062"/><path fill="#E3CB20" d="M 218.398438 142.726562 C 219.03125 142.375 219.664062 142.078125 220.375 141.929688 C 221.070312 141.785156 220.777344 140.722656 220.085938 140.867188 C 219.285156 141.035156 218.550781 141.378906 217.84375 141.777344 C 217.222656 142.121094 217.777344 143.074219 218.398438 142.726562"/><path fill="#E3CB20" d="M 218.496094 157.644531 C 217.816406 157.292969 217.183594 156.863281 216.558594 156.421875 C 215.972656 156.015625 215.425781 156.972656 216 157.375 C 216.628906 157.816406 217.261719 158.242188 217.941406 158.597656 C 218.570312 158.925781 219.128906 157.972656 218.496094 157.644531"/><path fill="#E3CB20" d="M 221.285156 154.34375 C 218.988281 153.765625 216.648438 153.382812 214.351562 152.792969 C 213.664062 152.617188 213.375 153.679688 214.0625 153.855469 C 216.355469 154.449219 218.695312 154.832031 220.992188 155.410156 C 221.679688 155.582031 221.972656 154.519531 221.285156 154.34375"/><path fill="#E3CB20" d="M 212.75 163.042969 C 212.398438 162.425781 211.445312 162.980469 211.800781 163.597656 C 211.921875 163.808594 212.042969 164.015625 212.164062 164.222656 C 212.519531 164.839844 213.46875 164.28125 213.113281 163.667969 C 212.996094 163.457031 212.871094 163.25 212.75 163.042969"/><path fill="#E3CB20" d="M 202.464844 164.3125 C 202.558594 163.808594 202.578125 163.34375 202.503906 162.835938 C 202.394531 162.132812 201.335938 162.433594 201.441406 163.128906 C 201.484375 163.429688 201.457031 163.722656 201.402344 164.019531 C 201.273438 164.714844 202.335938 165.011719 202.464844 164.3125"/><path fill="#E3CB20" d="M 198.28125 163.195312 C 199.179688 161.269531 200.105469 159.367188 201.152344 157.515625 C 201.5 156.898438 200.550781 156.34375 200.199219 156.960938 C 199.15625 158.808594 198.230469 160.710938 197.332031 162.636719 C 197.035156 163.277344 197.984375 163.835938 198.28125 163.195312"/><path fill="#E3CB20" d="M 188.90625 190.496094 C 188.128906 183.292969 187.058594 176.035156 185.582031 168.90625 C 188.816406 170.785156 192.023438 172.707031 195.09375 174.847656 C 198.132812 176.964844 200.703125 179.773438 203.664062 181.96875 C 200.027344 186.289062 194.527344 189.824219 188.90625 190.496094 Z M 174.128906 185.980469 C 177.957031 180.742188 181.0625 175.089844 184.625 169.691406 C 186.035156 176.59375 187.066406 183.625 187.816406 190.589844 C 183.054688 190.84375 177.964844 189.074219 174.128906 185.980469 Z M 210.386719 164.746094 C 209.871094 164.800781 209.359375 164.851562 208.851562 164.921875 C 208.785156 164.925781 208.71875 164.933594 208.648438 164.945312 C 208.914062 164.910156 209.175781 164.875 209.441406 164.847656 C 208.746094 162.882812 208.015625 160.929688 207.53125 158.898438 C 207.367188 158.207031 206.300781 158.5 206.46875 159.191406 C 206.945312 161.167969 207.644531 163.070312 208.324219 164.984375 C 208.347656 164.980469 208.375 164.976562 208.398438 164.972656 C 208.71875 170.164062 207.566406 176.765625 204.535156 180.871094 C 204.476562 180.953125 204.410156 181.035156 204.347656 181.113281 C 201.332031 178.917969 198.691406 176.078125 195.648438 173.894531 C 192.617188 171.71875 189.375 169.828125 186.148438 167.957031 C 186.09375 167.964844 186.039062 167.964844 185.984375 167.972656 C 185.421875 168.023438 184.859375 168.078125 184.296875 168.132812 C 184.300781 168.152344 184.304688 168.167969 184.308594 168.1875 C 180.511719 173.816406 177.292969 179.765625 173.292969 185.265625 C 172.113281 184.199219 171.074219 183.003906 170.234375 181.695312 C 169.15625 180.011719 168.203125 177.902344 167.765625 175.941406 C 167.414062 174.546875 167.09375 172.671875 167.289062 171 C 168.011719 170.816406 168.746094 170.65625 169.46875 170.523438 C 168.636719 170.675781 167.792969 170.859375 166.96875 171.074219 C 165.992188 171.347656 165.03125 171.683594 164.132812 172.152344 C 164.859375 180.390625 170.339844 187.746094 177.988281 190.742188 C 182.519531 192.515625 187.574219 193.941406 192.4375 192.757812 C 197.101562 191.625 201.144531 188.472656 204.265625 184.925781 C 207.230469 181.554688 209.441406 177.875 210.828125 173.855469 C 211.761719 171.175781 212.628906 164.820312 212.554688 164.570312 C 211.824219 164.515625 211.117188 164.671875 210.386719 164.746094"/><path fill="#E3CB20" d="M 195.917969 171.574219 C 198.460938 172.8125 200.6875 174.492188 202.757812 176.40625 C 203.28125 176.886719 204.0625 176.109375 203.535156 175.628906 C 201.398438 173.652344 199.101562 171.902344 196.476562 170.625 C 195.839844 170.3125 195.28125 171.265625 195.917969 171.574219"/><path fill="#E3CB20" d="M 201.621094 172.214844 C 202.328125 172.367188 203.003906 172.558594 203.636719 172.917969 C 204.253906 173.269531 204.808594 172.316406 204.191406 171.964844 C 203.480469 171.558594 202.710938 171.324219 201.914062 171.152344 C 201.222656 171 200.929688 172.0625 201.621094 172.214844"/><path fill="#E3CB20" d="M 191.246094 181.300781 C 191.078125 180.609375 190.019531 180.902344 190.183594 181.59375 C 190.367188 182.339844 190.554688 183.078125 190.832031 183.796875 C 191.085938 184.453125 192.148438 184.167969 191.894531 183.503906 C 191.617188 182.785156 191.425781 182.046875 191.246094 181.300781"/><path fill="#E3CB20" d="M 191.046875 177.671875 C 192.375 179.636719 193.878906 181.46875 195.21875 183.429688 C 195.621094 184.011719 196.574219 183.460938 196.171875 182.871094 C 194.832031 180.914062 193.324219 179.082031 191.996094 177.113281 C 191.601562 176.527344 190.648438 177.082031 191.046875 177.671875"/><path fill="#E3CB20" d="M 182.941406 183.460938 C 182.894531 183.699219 182.851562 183.9375 182.800781 184.171875 C 182.664062 184.867188 183.722656 185.160156 183.863281 184.464844 C 183.914062 184.230469 183.957031 183.992188 184.003906 183.757812 C 184.144531 183.0625 183.082031 182.765625 182.941406 183.460938"/><path fill="#E3CB20" d="M 181.867188 176.628906 C 180.59375 179.03125 179.714844 181.601562 178.660156 184.101562 C 178.386719 184.75 179.332031 185.3125 179.609375 184.660156 C 180.664062 182.160156 181.542969 179.585938 182.816406 177.183594 C 183.148438 176.554688 182.199219 176 181.867188 176.628906"/><path fill="#E3CB20" d="M 175.492188 176.25 C 175.300781 176.554688 175.050781 176.78125 174.769531 177 C 174.210938 177.4375 174.996094 178.210938 175.550781 177.78125 C 175.90625 177.5 176.199219 177.1875 176.445312 176.804688 C 176.828125 176.203125 175.875 175.652344 175.492188 176.25"/><path fill="#E3CB20" d="M 173.167969 174.191406 C 175.066406 173.363281 176.976562 172.570312 178.9375 171.894531 C 179.601562 171.660156 179.316406 170.597656 178.640625 170.828125 C 176.597656 171.539062 174.597656 172.375 172.613281 173.242188 C 171.964844 173.523438 172.523438 174.476562 173.167969 174.191406"/><g clip-path="url(#t)"><path fill="#E7E1A0" d="M 196.273438 222.433594 C 179.117188 224.324219 160.757812 222.882812 157.480469 222.34375 C 157.683594 225.378906 160.566406 226.90625 164.046875 227.75 C 167.828125 228.664062 171.894531 228.738281 175.757812 228.925781 C 180.894531 229.179688 185.945312 229.015625 191.082031 228.671875 C 202.222656 227.921875 214.203125 224.863281 220.222656 223.089844 C 222.226562 222.515625 224.269531 221.542969 225.980469 220.203125 C 228.167969 218.484375 229.808594 216.160156 230.113281 213.289062 C 230.113281 213.289062 226.289062 216.644531 206.242188 220.875 C 203.054688 221.550781 199.6875 222.058594 196.273438 222.433594"/></g><path fill="#E7E1A0" d="M 155.089844 215.710938 C 147.699219 211.042969 144.511719 202.730469 142.957031 194.46875 C 142.828125 193.769531 141.765625 194.070312 141.898438 194.761719 C 143.507812 203.320312 146.90625 211.84375 154.53125 216.664062 C 155.132812 217.046875 155.6875 216.089844 155.089844 215.710938"/><path fill="#E7E1A0" d="M 158.902344 218.351562 C 158.402344 218.160156 157.972656 217.828125 157.46875 217.632812 C 156.804688 217.378906 156.519531 218.449219 157.175781 218.695312 C 157.675781 218.886719 158.105469 219.222656 158.613281 219.417969 C 159.277344 219.667969 159.5625 218.605469 158.902344 218.351562"/><path fill="#E7E1A0" d="M 138.625 108.832031 C 138.714844 108.128906 137.613281 108.136719 137.523438 108.832031 C 136.875 114.023438 137.121094 119.367188 137.234375 124.582031 C 137.414062 132.941406 137.832031 141.296875 138.289062 149.644531 C 138.328125 150.351562 139.429688 150.355469 139.390625 149.644531 C 138.929688 141.296875 138.53125 132.941406 138.332031 124.582031 C 138.210938 119.371094 137.972656 114.019531 138.625 108.832031"/><path fill="#E7E1A0" d="M 146.371094 95.914062 C 146.980469 95.554688 146.425781 94.601562 145.8125 94.964844 C 143.160156 96.519531 141.15625 98.726562 139.425781 101.242188 C 139.019531 101.828125 139.976562 102.378906 140.375 101.796875 C 142.003906 99.433594 143.875 97.375 146.371094 95.914062"/><path fill="#E7E1A0" d="M 225.292969 131.21875 C 225.957031 131.996094 226.617188 132.78125 226.960938 133.757812 C 227.199219 134.421875 228.261719 134.136719 228.023438 133.464844 C 227.609375 132.296875 226.863281 131.367188 226.070312 130.441406 C 225.609375 129.898438 224.832031 130.683594 225.292969 131.21875"/><path fill="#E7E1A0" d="M 228.75 138.421875 C 228.527344 137.75 227.464844 138.039062 227.6875 138.714844 C 229.527344 144.3125 231.375 150.765625 229.386719 156.558594 C 229.152344 157.230469 230.214844 157.519531 230.445312 156.851562 C 232.5 150.878906 230.640625 144.191406 228.75 138.421875"/><path fill="#E7E1A0" d="M 217.605469 168.894531 C 217.628906 167.914062 217.542969 166.492188 216.550781 165.390625 C 215.714844 164.453125 214.460938 163.769531 213.117188 163.527344 C 212.964844 163.492188 212.765625 163.472656 212.589844 163.472656 C 212.5 163.460938 212.378906 163.460938 212.246094 163.460938 C 211.753906 163.460938 211.300781 163.515625 210.863281 163.582031 C 210.664062 163.605469 210.476562 163.625 210.277344 163.648438 C 209.441406 163.734375 208.671875 163.824219 207.933594 163.925781 C 205.734375 164.210938 203.511719 164.617188 201.367188 165.003906 C 198.140625 165.589844 194.808594 166.183594 191.515625 166.425781 C 191.242188 166.449219 190.96875 166.46875 190.679688 166.492188 C 190.503906 166.835938 190.351562 167.1875 190.207031 167.539062 C 190.195312 167.570312 190.175781 167.59375 190.175781 167.628906 C 190.648438 167.59375 191.121094 167.5625 191.59375 167.527344 C 197.152344 167.121094 202.578125 165.753906 208.089844 165.015625 C 208.847656 164.90625 209.617188 164.828125 210.390625 164.75 C 211.015625 164.683594 211.621094 164.5625 212.246094 164.5625 C 212.347656 164.5625 212.457031 164.5625 212.554688 164.574219 C 212.675781 164.574219 212.796875 164.585938 212.917969 164.617188 C 213.964844 164.804688 215.03125 165.335938 215.734375 166.128906 C 216.40625 166.878906 216.527344 167.902344 216.507812 168.875 C 216.441406 171.121094 215.824219 173.304688 214.921875 175.355469 C 215.40625 175.179688 215.878906 174.992188 216.351562 174.769531 C 217.144531 172.707031 217.550781 170.78125 217.605469 168.894531"/><path fill="#E7E1A0" d="M 214.429688 168.128906 C 214.417969 169.207031 214.371094 170.25 213.972656 171.265625 C 213.714844 171.929688 214.777344 172.214844 215.035156 171.558594 C 215.464844 170.460938 215.515625 169.296875 215.53125 168.128906 C 215.542969 167.417969 214.441406 167.417969 214.429688 168.128906"/><path fill="#E7E1A0" d="M 212.398438 175.335938 C 209.964844 180.910156 206.21875 186.824219 200.792969 189.863281 C 200.171875 190.207031 200.726562 191.160156 201.347656 190.8125 C 206.925781 187.691406 210.847656 181.621094 213.351562 175.890625 C 213.632812 175.246094 212.683594 174.683594 212.398438 175.335938"/><path fill="#E7E1A0" d="M 163.238281 174.328125 C 163.019531 174.328125 163.019531 174.667969 163.238281 174.667969 C 163.457031 174.667969 163.457031 174.328125 163.238281 174.328125"/><path fill="#E7E1A0" d="M 162.992188 176.566406 C 163.226562 177.6875 163.371094 178.8125 163.945312 179.824219 C 164.292969 180.441406 165.246094 179.886719 164.894531 179.265625 C 164.371094 178.347656 164.269531 177.289062 164.054688 176.273438 C 163.90625 175.578125 162.84375 175.875 162.992188 176.566406"/><path fill="#E7E1A0" d="M 173.226562 142.109375 C 171.527344 140.808594 168.859375 139.976562 166.066406 139.878906 C 164.648438 139.894531 163.113281 139.9375 161.445312 140.171875 C 159.382812 140.453125 156.660156 139.742188 154.730469 138.5 C 156.292969 138.199219 157.769531 137.664062 159.210938 137.144531 C 162.261719 136.039062 165.136719 134.996094 168.261719 136.457031 C 171.148438 137.875 172.96875 140.363281 174.261719 143.0625 C 173.824219 142.621094 173.441406 142.269531 173.226562 142.109375 Z M 166.238281 144.605469 C 165.085938 144.761719 164.089844 144.894531 163.40625 144.894531 C 159.859375 144.972656 156.46875 142.9375 154.667969 139.75 C 156.761719 140.933594 159.449219 141.558594 161.59375 141.261719 C 163.113281 141.050781 164.484375 140.996094 166.050781 140.980469 C 168.601562 141.070312 171.035156 141.820312 172.5625 142.984375 C 172.839844 143.195312 173.449219 143.78125 174.058594 144.453125 C 171.785156 143.863281 168.699219 144.277344 166.238281 144.605469 Z M 176.644531 147.855469 C 176.941406 147.78125 177.125 147.484375 177.054688 147.191406 C 176.980469 146.894531 176.890625 146.648438 176.800781 146.488281 C 175.386719 142.296875 173.324219 137.71875 168.738281 135.464844 C 165.195312 133.800781 161.960938 134.972656 158.835938 136.105469 C 157.058594 136.75 155.222656 137.414062 153.296875 137.59375 C 153.28125 137.59375 153.265625 137.597656 153.25 137.601562 C 153.234375 137.605469 153.21875 137.609375 153.203125 137.613281 C 153.179688 137.617188 153.160156 137.625 153.136719 137.632812 C 153.125 137.640625 153.113281 137.644531 153.101562 137.652344 C 153.078125 137.664062 153.054688 137.675781 153.035156 137.691406 C 153.023438 137.695312 153.015625 137.703125 153.007812 137.710938 C 152.988281 137.726562 152.964844 137.746094 152.945312 137.765625 C 152.945312 137.769531 152.941406 137.769531 152.941406 137.769531 C 152.933594 137.777344 152.929688 137.785156 152.925781 137.792969 C 152.910156 137.808594 152.898438 137.824219 152.882812 137.839844 C 152.882812 137.847656 152.878906 137.851562 152.875 137.859375 C 152.871094 137.863281 152.871094 137.871094 152.867188 137.878906 C 152.816406 137.96875 152.792969 138.0625 152.800781 138.164062 C 152.800781 138.164062 152.796875 138.167969 152.800781 138.167969 C 152.800781 138.195312 152.804688 138.226562 152.8125 138.253906 C 152.8125 138.261719 152.8125 138.273438 152.816406 138.28125 C 152.820312 138.292969 152.820312 138.304688 152.824219 138.316406 C 154.386719 142.964844 158.785156 146.109375 163.421875 145.996094 C 164.164062 145.996094 165.195312 145.859375 166.386719 145.699219 C 169.445312 145.285156 174.050781 144.667969 175.597656 146.59375 C 175.613281 146.628906 175.632812 146.660156 175.65625 146.6875 C 175.691406 146.738281 175.726562 146.796875 175.773438 146.894531 C 175.785156 146.925781 175.796875 146.953125 175.816406 146.980469 C 175.882812 147.097656 175.9375 147.25 175.984375 147.445312 C 176.042969 147.699219 176.269531 147.867188 176.519531 147.867188 C 176.558594 147.867188 176.605469 147.863281 176.644531 147.855469"/><path fill="#E7E1A0" d="M 191.640625 140 C 191.992188 139.246094 192.363281 138.582031 192.554688 138.316406 C 193.617188 136.824219 195.628906 135.453125 197.902344 134.664062 C 199.359375 134.226562 200.628906 133.890625 202.074219 133.652344 C 204.097656 133.320312 206.351562 132.015625 207.933594 130.367188 C 207.171875 133.75 204.691406 136.527344 201.421875 137.4375 C 200.804688 137.628906 199.847656 137.792969 198.742188 137.976562 C 196.417969 138.367188 193.546875 138.855469 191.640625 140 Z M 191.046875 138.710938 C 191.480469 135.9375 192.445312 133.214844 194.628906 131.140625 C 196.46875 129.472656 198.578125 129.136719 200.828125 129.136719 C 201.566406 129.136719 202.320312 129.171875 203.085938 129.210938 C 204.53125 129.277344 206.011719 129.347656 207.511719 129.1875 C 206.097656 130.847656 203.839844 132.242188 201.894531 132.5625 C 200.304688 132.824219 198.882812 133.21875 197.5625 133.613281 C 195.058594 134.484375 192.851562 136.003906 191.65625 137.675781 C 191.519531 137.867188 191.296875 138.242188 191.046875 138.710938 Z M 201.734375 138.492188 C 206.035156 137.296875 209.125 133.199219 209.273438 128.519531 C 209.273438 128.519531 209.273438 128.515625 209.273438 128.515625 C 209.273438 128.492188 209.277344 128.472656 209.277344 128.449219 C 209.277344 128.445312 209.277344 128.441406 209.277344 128.433594 C 209.277344 128.414062 209.273438 128.394531 209.269531 128.375 C 209.257812 128.234375 209.191406 128.097656 209.078125 128.007812 C 208.953125 127.898438 208.78125 127.847656 208.613281 127.882812 C 206.804688 128.261719 204.9375 128.15625 203.136719 128.070312 C 199.957031 127.917969 196.667969 127.722656 193.878906 130.257812 C 190.359375 133.609375 189.746094 138.277344 189.617188 142.484375 C 189.582031 142.726562 189.570312 142.835938 189.582031 143.101562 C 189.59375 143.394531 189.835938 143.328125 190.128906 143.328125 C 190.140625 143.328125 190.148438 143.328125 190.15625 143.328125 C 190.460938 143.328125 190.800781 143.355469 190.789062 143.050781 C 190.78125 142.847656 190.921875 142.953125 190.921875 142.78125 C 190.921875 142.777344 190.921875 142.773438 190.921875 142.773438 C 190.921875 140.375 195.933594 139.585938 199.03125 139.0625 C 200.179688 138.871094 201.0625 138.703125 201.734375 138.492188"/><path fill="#E7E1A0" d="M 154.699219 166.507812 C 154.601562 167.125 153.84375 167.632812 153.316406 167.851562 C 152.453125 168.214844 151.550781 167.742188 151.621094 166.777344 C 151.6875 165.875 152.101562 165.335938 153.035156 165.292969 C 153.648438 165.324219 154.832031 165.664062 154.699219 166.507812 Z M 153.25 163.65625 C 153.183594 163.644531 153.113281 163.636719 153.035156 163.640625 C 152.953125 163.632812 152.882812 163.644531 152.8125 163.65625 C 151.007812 163.828125 150.1875 165.011719 149.96875 166.777344 C 149.746094 168.589844 151.542969 169.871094 153.222656 169.574219 C 154.597656 169.332031 156.359375 168.046875 156.355469 166.503906 C 156.347656 164.773438 154.808594 163.808594 153.25 163.65625"/><path fill="#E7E1A0" d="M 217.035156 127.101562 C 215.941406 127.167969 215.308594 126.175781 215.285156 125.214844 C 215.261719 124.183594 216.019531 123.707031 216.964844 123.707031 C 219.0625 123.910156 219.289062 126.957031 217.035156 127.101562 Z M 220.347656 125.484375 C 220.382812 123.699219 218.839844 122.347656 217.195312 122.085938 C 217.125 122.0625 217.050781 122.050781 216.964844 122.050781 C 216.882812 122.042969 216.808594 122.046875 216.738281 122.058594 C 214.914062 122.15625 213.742188 123.359375 213.636719 125.214844 C 213.519531 127.171875 215.160156 128.6875 217.035156 128.753906 C 218.875 128.820312 220.316406 127.25 220.347656 125.484375"/><path fill="#E7E1A0" d="M 222.464844 181.023438 C 224.5625 181.226562 224.789062 184.277344 222.535156 184.421875 C 221.445312 184.488281 220.808594 183.496094 220.785156 182.53125 C 220.761719 181.503906 221.519531 181.027344 222.464844 181.023438 Z M 222.535156 186.074219 C 224.375 186.140625 225.820312 184.570312 225.851562 182.804688 C 225.882812 181.015625 224.339844 179.667969 222.699219 179.402344 C 222.625 179.382812 222.550781 179.371094 222.464844 179.371094 C 222.382812 179.363281 222.308594 179.367188 222.242188 179.378906 C 220.417969 179.476562 219.246094 180.679688 219.136719 182.53125 C 219.023438 184.488281 220.660156 186.003906 222.535156 186.074219"/><path fill="#E7E1A0" d="M 172.117188 151.425781 C 175.253906 151.332031 175.582031 155.925781 174.324219 157.992188 C 173.082031 160.03125 170.730469 157.796875 170.371094 156.304688 C 170.015625 154.847656 170.464844 151.921875 172.117188 151.425781 Z M 174.117188 159.917969 C 176.109375 159.15625 176.484375 156.542969 176.367188 154.699219 C 176.210938 152.199219 174.78125 149.816406 171.988281 150.011719 C 171.984375 150.011719 171.980469 150.011719 171.980469 150.011719 C 171.921875 150.015625 171.863281 150.019531 171.800781 150.039062 C 166.84375 151.3125 168.460938 162.078125 174.117188 159.917969"/><path fill="#E7E1A0" d="M 166.878906 156.074219 C 166.585938 154.894531 165.378906 154.53125 164.375 154.203125 C 162.308594 153.53125 163.636719 150.78125 164.972656 152.207031 C 165.597656 152.878906 166.597656 151.871094 165.972656 151.207031 C 164.351562 149.472656 161.925781 150.660156 161.800781 152.90625 C 161.738281 154.015625 162.644531 154.960938 163.570312 155.402344 C 164.1875 155.699219 165.039062 155.714844 165.457031 156.324219 C 166.167969 157.359375 164.445312 158.460938 163.59375 157.785156 C 162.882812 157.222656 161.875 158.21875 162.589844 158.789062 C 164.574219 160.363281 167.507812 158.601562 166.878906 156.074219"/><path fill="#E7E1A0" d="M 180.019531 157.140625 C 179.816406 155.445312 179.746094 153.738281 179.59375 152.035156 C 181.082031 152.09375 182.460938 152.816406 182.679688 154.496094 C 182.910156 156.253906 181.5 157.097656 180.019531 157.140625 Z M 178.824219 150.640625 C 178.761719 150.648438 178.707031 150.660156 178.65625 150.679688 C 178.339844 150.71875 178.074219 150.9375 178.117188 151.351562 C 178.351562 153.570312 178.402344 155.800781 178.707031 158.011719 C 178.761719 158.402344 179.046875 158.550781 179.34375 158.523438 C 179.359375 158.527344 179.375 158.53125 179.390625 158.535156 C 181.878906 158.832031 184.03125 157.367188 184.109375 154.75 C 184.195312 151.886719 181.332031 150.371094 178.824219 150.640625"/><path fill="#E7E1A0" d="M 188.027344 153.59375 C 188.046875 153.4375 188.0625 153.285156 188.09375 153.128906 C 188.273438 152.117188 189.492188 150.644531 190.46875 151.683594 C 190.914062 152.160156 191.191406 152.816406 191.371094 153.542969 C 190.253906 153.570312 189.140625 153.585938 188.027344 153.59375 Z M 191.785156 157.128906 C 191.863281 158.03125 193.28125 158.039062 193.199219 157.128906 C 193.011719 155.003906 192.957031 151.042969 190.605469 150.058594 C 189.207031 149.472656 187.71875 150.546875 187.074219 151.746094 C 186.1875 153.390625 186.679688 155.503906 186.703125 157.273438 C 186.71875 158.1875 188.132812 158.1875 188.121094 157.273438 C 188.109375 156.523438 188.03125 155.769531 188 155.011719 C 189.203125 155.007812 190.40625 154.984375 191.609375 154.957031 C 191.695312 155.738281 191.730469 156.503906 191.785156 157.128906"/><path fill="#E7E1A0" d="M 183.449219 164.726562 C 183.449219 164.726562 184.46875 163.074219 183.449219 163.074219 C 182.433594 163.074219 182.433594 164.726562 183.449219 164.726562"/><path fill="#E7E1A0" d="M 184.46875 139.679688 C 183.449219 139.679688 183.449219 141.332031 184.46875 141.332031 C 184.46875 141.332031 185.488281 139.679688 184.46875 139.679688"/><path fill="#E7E1A0" d="M 198.390625 146.082031 C 198.390625 146.082031 199.410156 144.425781 198.390625 144.425781 C 197.371094 144.425781 197.371094 146.082031 198.390625 146.082031"/><path fill="#E7E1A0" d="M 154.585938 149.671875 C 154.585938 149.671875 155.605469 148.015625 154.585938 148.015625 C 153.570312 148.015625 153.570312 149.671875 154.585938 149.671875"/><path fill="#E7E1A0" d="M 218.425781 178.023438 C 218.425781 177.003906 217.066406 177.003906 217.066406 178.023438 C 217.066406 178.023438 218.425781 179.386719 218.425781 178.023438"/><path fill="#E7E1A0" d="M 225.558594 172.132812 C 224.539062 172.132812 224.539062 173.789062 225.558594 173.789062 C 225.558594 173.789062 226.574219 172.132812 225.558594 172.132812"/><path fill="#E7E1A0" d="M 168.511719 162.765625 C 168.511719 162.765625 169.527344 161.109375 168.511719 161.109375 C 167.492188 161.109375 167.492188 162.765625 168.511719 162.765625"/><path fill="#E7E1A0" d="M 158.664062 179.300781 C 158.664062 179.300781 159.679688 177.644531 158.664062 177.644531 C 157.304688 177.644531 157.304688 179.300781 158.664062 179.300781"/><path fill="#E7E1A0" d="M 163.90625 85.894531 C 164.21875 83.679688 166.898438 82.257812 168.886719 82.171875 C 168.917969 82.167969 168.953125 82.171875 168.984375 82.175781 C 169.003906 82.175781 169.015625 82.171875 169.03125 82.175781 C 171.1875 82.300781 173.394531 84.011719 172.601562 86.433594 C 171.910156 88.542969 170.191406 90.125 167.910156 89.894531 C 165.859375 89.691406 163.582031 88.199219 163.90625 85.894531 Z M 175.09375 77.390625 C 176.152344 76.371094 177.332031 75.339844 178.625 74.640625 C 179.511719 74.144531 180.554688 73.722656 181.644531 73.429688 C 184.710938 72.585938 188.222656 72.789062 189.957031 75.679688 C 191.246094 77.832031 190.453125 80.652344 188.96875 82.484375 C 186.679688 85.191406 183.394531 86.898438 179.851562 87.140625 C 176.875 87.371094 173.992188 86.242188 173.246094 83.082031 C 172.710938 80.761719 173.355469 79.042969 175.09375 77.390625 Z M 170.09375 92.363281 C 174.472656 91.988281 178.53125 90.179688 182.671875 88.835938 C 186.378906 87.621094 190.175781 86.34375 192.421875 82.925781 C 194.324219 80.039062 194.816406 76.367188 193.113281 73.238281 C 191.230469 69.820312 188.007812 69.644531 184.484375 70.273438 C 178.105469 71.417969 173.648438 76.820312 167.890625 79.257812 C 164.832031 80.546875 161.046875 80.820312 159.289062 84.09375 C 158.453125 85.648438 158.496094 87.523438 160.046875 89.429688 C 162.257812 92.140625 166.878906 92.625 170.09375 92.363281"/><path fill="#E7E1A0" d="M 166.421875 85.683594 C 166.648438 85.152344 167.496094 84.609375 168.023438 84.449219 C 168.210938 84.390625 168.414062 84.359375 168.617188 84.355469 C 169.320312 84.34375 170.019531 84.679688 170.148438 85.445312 C 170.28125 86.222656 169.789062 87.09375 169.082031 87.4375 C 168.019531 87.957031 165.78125 87.183594 166.421875 85.683594 Z M 167.757812 88.773438 C 169.21875 88.921875 170.210938 88.414062 171.023438 87.1875 C 172.375 85.144531 171.128906 83.445312 168.945312 83.273438 C 167.535156 83.347656 166.214844 83.976562 165.425781 85.199219 C 164.273438 86.984375 165.984375 88.597656 167.757812 88.773438"/><g clip-path="url(#u)"><path fill="#E7E1A0" d="M 151.980469 85.066406 C 152.960938 81.957031 154.898438 79.3125 157.152344 77.007812 C 160.378906 73.722656 164.800781 71.828125 169.015625 70.160156 C 175.496094 67.605469 182.328125 66.082031 189.25 65.355469 C 190.011719 65.28125 190.769531 65.214844 191.527344 65.15625 C 197.691406 64.683594 204.007812 64.9375 209.9375 66.746094 C 212.027344 67.375 214.054688 68.277344 215.867188 69.511719 C 217.75 70.800781 218.894531 72.324219 220.082031 74.242188 C 220.675781 75.222656 221.203125 76.246094 221.578125 77.328125 C 222.878906 81.183594 221.820312 85.394531 220.019531 88.910156 C 219.421875 90.082031 218.683594 91.226562 217.882812 92.261719 C 214.953125 96.089844 210.882812 98.832031 206.625 100.960938 C 203.414062 102.570312 199.550781 103.054688 196.050781 103.714844 C 191.308594 104.609375 186.542969 104.949219 181.726562 104.554688 C 179.800781 104.390625 177.882812 104.179688 175.96875 103.925781 C 169.585938 103.066406 163.027344 101.976562 157.328125 98.8125 C 154.347656 97.15625 151.992188 94.621094 151.453125 91.148438 C 151.15625 89.222656 151.398438 86.917969 151.980469 85.066406 Z M 153.679688 101.539062 C 160.476562 106.242188 168.433594 108.574219 176.597656 109.386719 C 178.90625 109.613281 181.230469 109.707031 183.554688 109.695312 C 190.414062 109.65625 197.445312 108.910156 203.914062 106.503906 C 210.046875 104.226562 216.738281 101.039062 220.820312 95.703125 C 221.898438 94.292969 230.941406 80.007812 224.566406 70.148438 C 222.488281 66.933594 219.921875 64.492188 216.386719 63.203125 C 207.097656 59.820312 197.144531 58.179688 187.289062 59.335938 C 184.40625 59.675781 181.539062 60.257812 178.734375 61.007812 C 172.699219 62.621094 166.828125 64.75 161.246094 67.574219 C 159.042969 68.6875 156.910156 69.957031 154.914062 71.417969 C 153.351562 72.5625 151.875 73.816406 150.496094 75.179688 C 148.222656 77.429688 145.550781 79.878906 144.644531 83.054688 C 144.285156 84.3125 144.140625 85.5625 144.171875 86.78125 C 144.335938 92.792969 148.84375 98.191406 153.679688 101.539062"/></g><g fill="#6A4018"><g><g><path d="M 3.421875 -29.703125 L 24.921875 -29.703125 C 26.503906 -28.585938 27.296875 -27.578125 27.296875 -26.671875 C 27.296875 -25.921875 26.96875 -24.570312 26.3125 -22.625 L 12.921875 -22.625 L 12.921875 -17.78125 L 23.34375 -18.515625 C 25.257812 -17.535156 26.21875 -16.472656 26.21875 -15.328125 C 26.21875 -14.398438 25.578125 -13.425781 24.296875 -12.40625 L 12.921875 -11.609375 L 12.921875 -0.875 C 10.023438 -0.0390625 8.125 0.375 7.21875 0.375 C 4.769531 0.375 3.503906 -0.523438 3.421875 -2.328125 Z M 3.421875 -29.703125" transform="translate(95.087 277.57)"/></g></g></g><g fill="#6A4018"><g><g><path d="M 2.75 -28.71875 C 2.75 -29.90625 3.304688 -30.753906 4.421875 -31.265625 C 5.535156 -31.773438 6.546875 -32.03125 7.453125 -32.03125 C 8.640625 -32.03125 9.625 -31.757812 10.40625 -31.21875 C 11.1875 -30.6875 11.578125 -29.851562 11.578125 -28.71875 C 11.578125 -28.019531 11.160156 -27.304688 10.328125 -26.578125 C 9.503906 -25.847656 8.289062 -25.484375 6.6875 -25.484375 C 5.019531 -25.484375 3.945312 -25.859375 3.46875 -26.609375 C 2.988281 -27.367188 2.75 -28.070312 2.75 -28.71875 Z M 2.796875 -21.546875 C 4.929688 -22.535156 6.648438 -23.03125 7.953125 -23.03125 C 9.597656 -22.96875 10.910156 -22.21875 11.890625 -20.78125 L 11.890625 -1.640625 C 10.054688 -0.191406 8.4375 0.53125 7.03125 0.53125 C 4.925781 0.53125 3.515625 -0.421875 2.796875 -2.328125 Z M 2.796875 -21.546875" transform="translate(122.005 277.57)"/></g></g></g><g fill="#6A4018"><g><g><path d="M 13.515625 -6.90625 L 19.515625 -6.90625 C 21.472656 -5.96875 22.453125 -4.910156 22.453125 -3.734375 C 22.453125 -2.890625 21.859375 -1.519531 20.671875 0.375 L 5.046875 0.375 C 3.265625 0.144531 2.238281 -0.289062 1.96875 -0.9375 C 1.695312 -1.59375 1.5625 -2.375 1.5625 -3.28125 L 9.9375 -16.734375 L 2.859375 -16.734375 C 1.554688 -18.566406 0.90625 -19.878906 0.90625 -20.671875 C 0.90625 -22.046875 1.972656 -23.101562 4.109375 -23.84375 L 18.0625 -23.84375 C 19.726562 -23.820312 20.789062 -23.441406 21.25 -22.703125 C 21.71875 -21.972656 21.953125 -21.15625 21.953125 -20.25 Z M 13.515625 -6.90625" transform="translate(134.735 277.57)"/></g></g></g><g fill="#6A4018"><g><g><path d="M 13.515625 -6.90625 L 19.515625 -6.90625 C 21.472656 -5.96875 22.453125 -4.910156 22.453125 -3.734375 C 22.453125 -2.890625 21.859375 -1.519531 20.671875 0.375 L 5.046875 0.375 C 3.265625 0.144531 2.238281 -0.289062 1.96875 -0.9375 C 1.695312 -1.59375 1.5625 -2.375 1.5625 -3.28125 L 9.9375 -16.734375 L 2.859375 -16.734375 C 1.554688 -18.566406 0.90625 -19.878906 0.90625 -20.671875 C 0.90625 -22.046875 1.972656 -23.101562 4.109375 -23.84375 L 18.0625 -23.84375 C 19.726562 -23.820312 20.789062 -23.441406 21.25 -22.703125 C 21.71875 -21.972656 21.953125 -21.15625 21.953125 -20.25 Z M 13.515625 -6.90625" transform="translate(157.774 277.57)"/></g></g></g><g fill="#437B17"><g><g><path d="M 11.53125 -12.546875 L 11.53125 -6.203125 L 15.296875 -6.203125 C 16.554688 -6.242188 17.394531 -6.648438 17.8125 -7.421875 C 18.226562 -8.191406 18.445312 -9.117188 18.46875 -10.203125 C 18.445312 -10.785156 18.175781 -11.332031 17.65625 -11.84375 C 17.132812 -12.351562 16.476562 -12.644531 15.6875 -12.71875 Z M 11.53125 -17.921875 L 15.09375 -18.125 C 15.851562 -18.164062 16.414062 -18.476562 16.78125 -19.0625 C 17.144531 -19.644531 17.328125 -20.304688 17.328125 -21.046875 C 17.328125 -21.765625 17.097656 -22.273438 16.640625 -22.578125 C 16.191406 -22.890625 15.253906 -23.054688 13.828125 -23.078125 L 11.53125 -23.078125 Z M 3.40625 -29.5625 L 13.84375 -29.5625 C 18.71875 -29.53125 21.972656 -28.632812 23.609375 -26.875 C 25.242188 -25.125 26.0625 -23.34375 26.0625 -21.53125 C 26.0625 -19.90625 25.765625 -18.53125 25.171875 -17.40625 C 24.585938 -16.28125 24.175781 -15.648438 23.9375 -15.515625 C 24.34375 -15.515625 25.035156 -14.992188 26.015625 -13.953125 C 27.003906 -12.921875 27.5 -11.46875 27.5 -9.59375 C 27.5 -7.75 26.664062 -5.671875 25 -3.359375 C 23.34375 -1.046875 20.144531 0.148438 15.40625 0.234375 L 3.40625 0.234375 Z M 3.40625 -29.5625" transform="translate(180.81 277.57)"/></g></g></g><g fill="#437B17"><g><g><path d="M 14.390625 -22 C 16.367188 -23.300781 17.992188 -23.953125 19.265625 -23.953125 C 21.222656 -23.953125 22.570312 -23.039062 23.3125 -21.21875 L 23.3125 -1.359375 C 21.875 -0.335938 20.503906 0.171875 19.203125 0.171875 C 18.296875 0.171875 17.710938 -0.0351562 17.453125 -0.453125 L 17.453125 -1.84375 C 15.734375 -0.519531 13.890625 0.160156 11.921875 0.203125 C 9.203125 0.203125 6.984375 -0.769531 5.265625 -2.71875 C 3.546875 -4.664062 2.59375 -6.988281 2.40625 -9.6875 L 1.734375 -22.203125 C 3.972656 -23.316406 5.671875 -23.898438 6.828125 -23.953125 C 8.691406 -23.953125 9.945312 -23.03125 10.59375 -21.1875 L 11.1875 -9.59375 C 11.394531 -8.125 11.601562 -7.28125 11.8125 -7.0625 C 12.019531 -6.84375 12.335938 -6.734375 12.765625 -6.734375 C 13.273438 -6.734375 13.671875 -6.953125 13.953125 -7.390625 C 14.242188 -7.828125 14.390625 -8.546875 14.390625 -9.546875 Z M 14.390625 -22" transform="translate(207.954 277.57)"/></g></g></g><g fill="#437B17"><g><g><path d="M 13.515625 -6.90625 L 19.515625 -6.90625 C 21.472656 -5.96875 22.453125 -4.910156 22.453125 -3.734375 C 22.453125 -2.890625 21.859375 -1.519531 20.671875 0.375 L 5.046875 0.375 C 3.265625 0.144531 2.238281 -0.289062 1.96875 -0.9375 C 1.695312 -1.59375 1.5625 -2.375 1.5625 -3.28125 L 9.9375 -16.734375 L 2.859375 -16.734375 C 1.554688 -18.566406 0.90625 -19.878906 0.90625 -20.671875 C 0.90625 -22.046875 1.972656 -23.101562 4.109375 -23.84375 L 18.0625 -23.84375 C 19.726562 -23.820312 20.789062 -23.441406 21.25 -22.703125 C 21.71875 -21.972656 21.953125 -21.15625 21.953125 -20.25 Z M 13.515625 -6.90625" transform="translate(232.097 277.57)"/></g></g></g><g fill="#437B17"><g><g><path d="M 13.515625 -6.90625 L 19.515625 -6.90625 C 21.472656 -5.96875 22.453125 -4.910156 22.453125 -3.734375 C 22.453125 -2.890625 21.859375 -1.519531 20.671875 0.375 L 5.046875 0.375 C 3.265625 0.144531 2.238281 -0.289062 1.96875 -0.9375 C 1.695312 -1.59375 1.5625 -2.375 1.5625 -3.28125 L 9.9375 -16.734375 L 2.859375 -16.734375 C 1.554688 -18.566406 0.90625 -19.878906 0.90625 -20.671875 C 0.90625 -22.046875 1.972656 -23.101562 4.109375 -23.84375 L 18.0625 -23.84375 C 19.726562 -23.820312 20.789062 -23.441406 21.25 -22.703125 C 21.71875 -21.972656 21.953125 -21.15625 21.953125 -20.25 Z M 13.515625 -6.90625" transform="translate(255.136 277.57)"/></g></g></g><g fill="#437B17"><g><g><path d="M 0.53125 0 C 0.4375 0 0.351562 -0.03125 0.28125 -0.09375 C 0.21875 -0.164062 0.1875 -0.25 0.1875 -0.34375 C 0.1875 -0.394531 0.191406 -0.441406 0.203125 -0.484375 L 4.015625 -10.765625 C 4.046875 -10.878906 4.109375 -10.976562 4.203125 -11.0625 C 4.304688 -11.15625 4.441406 -11.203125 4.609375 -11.203125 L 6.65625 -11.203125 C 6.820312 -11.203125 6.953125 -11.15625 7.046875 -11.0625 C 7.148438 -10.976562 7.222656 -10.878906 7.265625 -10.765625 L 11.0625 -0.484375 C 11.082031 -0.441406 11.09375 -0.394531 11.09375 -0.34375 C 11.09375 -0.25 11.054688 -0.164062 10.984375 -0.09375 C 10.910156 -0.03125 10.828125 0 10.734375 0 L 9.0625 0 C 8.90625 0 8.789062 -0.0351562 8.71875 -0.109375 C 8.644531 -0.179688 8.597656 -0.25 8.578125 -0.3125 L 7.890625 -2.109375 L 3.375 -2.109375 L 2.703125 -0.3125 C 2.671875 -0.25 2.617188 -0.179688 2.546875 -0.109375 C 2.484375 -0.0351562 2.367188 0 2.203125 0 Z M 3.984375 -4.171875 L 7.28125 -4.171875 L 5.625 -8.765625 Z M 3.984375 -4.171875" transform="translate(57.262 305.32)"/></g></g></g><g fill="#437B17"><g><g><path d="M 4.046875 0 C 3.929688 0 3.832031 -0.0351562 3.75 -0.109375 C 3.675781 -0.179688 3.640625 -0.28125 3.640625 -0.40625 L 3.640625 -8.953125 L 0.734375 -8.953125 C 0.628906 -8.953125 0.539062 -8.988281 0.46875 -9.0625 C 0.394531 -9.144531 0.359375 -9.242188 0.359375 -9.359375 L 0.359375 -10.796875 C 0.359375 -10.910156 0.394531 -11.003906 0.46875 -11.078125 C 0.539062 -11.160156 0.628906 -11.203125 0.734375 -11.203125 L 9.125 -11.203125 C 9.238281 -11.203125 9.332031 -11.160156 9.40625 -11.078125 C 9.476562 -11.003906 9.515625 -10.910156 9.515625 -10.796875 L 9.515625 -9.359375 C 9.515625 -9.242188 9.476562 -9.144531 9.40625 -9.0625 C 9.332031 -8.988281 9.238281 -8.953125 9.125 -8.953125 L 6.21875 -8.953125 L 6.21875 -0.40625 C 6.21875 -0.28125 6.179688 -0.179688 6.109375 -0.109375 C 6.035156 -0.0351562 5.941406 0 5.828125 0 Z M 4.046875 0" transform="translate(84.858 305.32)"/></g></g></g><g fill="#437B17"><g><g><path d="M 4.71875 0.15625 C 3.488281 0.15625 2.515625 -0.179688 1.796875 -0.859375 C 1.078125 -1.546875 0.695312 -2.539062 0.65625 -3.84375 C 0.65625 -3.925781 0.65625 -4.039062 0.65625 -4.1875 C 0.65625 -4.332031 0.65625 -4.441406 0.65625 -4.515625 C 0.695312 -5.347656 0.882812 -6.054688 1.21875 -6.640625 C 1.550781 -7.234375 2.015625 -7.6875 2.609375 -8 C 3.203125 -8.320312 3.898438 -8.484375 4.703125 -8.484375 C 5.609375 -8.484375 6.359375 -8.296875 6.953125 -7.921875 C 7.554688 -7.554688 8.007812 -7.054688 8.3125 -6.421875 C 8.613281 -5.785156 8.765625 -5.054688 8.765625 -4.234375 L 8.765625 -3.875 C 8.765625 -3.769531 8.726562 -3.675781 8.65625 -3.59375 C 8.582031 -3.507812 8.488281 -3.46875 8.375 -3.46875 L 3.15625 -3.46875 C 3.15625 -3.46875 3.15625 -3.453125 3.15625 -3.421875 C 3.15625 -3.398438 3.15625 -3.378906 3.15625 -3.359375 C 3.164062 -3.015625 3.226562 -2.703125 3.34375 -2.421875 C 3.457031 -2.140625 3.628906 -1.910156 3.859375 -1.734375 C 4.085938 -1.566406 4.367188 -1.484375 4.703125 -1.484375 C 4.960938 -1.484375 5.175781 -1.523438 5.34375 -1.609375 C 5.507812 -1.691406 5.648438 -1.78125 5.765625 -1.875 C 5.878906 -1.976562 5.960938 -2.066406 6.015625 -2.140625 C 6.109375 -2.253906 6.1875 -2.328125 6.25 -2.359375 C 6.3125 -2.390625 6.398438 -2.40625 6.515625 -2.40625 L 8.203125 -2.40625 C 8.304688 -2.40625 8.390625 -2.367188 8.453125 -2.296875 C 8.523438 -2.234375 8.554688 -2.15625 8.546875 -2.0625 C 8.535156 -1.882812 8.445312 -1.671875 8.28125 -1.421875 C 8.113281 -1.171875 7.867188 -0.921875 7.546875 -0.671875 C 7.234375 -0.429688 6.835938 -0.234375 6.359375 -0.078125 C 5.878906 0.078125 5.332031 0.15625 4.71875 0.15625 Z M 3.15625 -4.9375 L 6.265625 -4.9375 L 6.265625 -4.984375 C 6.265625 -5.359375 6.203125 -5.6875 6.078125 -5.96875 C 5.960938 -6.257812 5.785156 -6.484375 5.546875 -6.640625 C 5.316406 -6.796875 5.035156 -6.875 4.703125 -6.875 C 4.367188 -6.875 4.085938 -6.796875 3.859375 -6.640625 C 3.628906 -6.484375 3.453125 -6.257812 3.328125 -5.96875 C 3.210938 -5.6875 3.15625 -5.359375 3.15625 -4.984375 Z M 3.15625 -4.9375" transform="translate(101.128 305.32)"/></g></g></g><g fill="#437B17"><g><g><path d="M 4.28125 0.15625 C 3.625 0.15625 3.054688 0.0820312 2.578125 -0.0625 C 2.109375 -0.21875 1.722656 -0.40625 1.421875 -0.625 C 1.128906 -0.851562 0.910156 -1.082031 0.765625 -1.3125 C 0.628906 -1.539062 0.554688 -1.738281 0.546875 -1.90625 C 0.535156 -2.019531 0.570312 -2.113281 0.65625 -2.1875 C 0.738281 -2.257812 0.820312 -2.296875 0.90625 -2.296875 L 2.46875 -2.296875 C 2.507812 -2.296875 2.539062 -2.289062 2.5625 -2.28125 C 2.59375 -2.269531 2.628906 -2.242188 2.671875 -2.203125 C 2.804688 -2.109375 2.945312 -2 3.09375 -1.875 C 3.238281 -1.757812 3.410156 -1.65625 3.609375 -1.5625 C 3.816406 -1.476562 4.066406 -1.4375 4.359375 -1.4375 C 4.703125 -1.4375 4.992188 -1.507812 5.234375 -1.65625 C 5.472656 -1.800781 5.59375 -2.003906 5.59375 -2.265625 C 5.59375 -2.460938 5.539062 -2.625 5.4375 -2.75 C 5.332031 -2.875 5.125 -2.988281 4.8125 -3.09375 C 4.507812 -3.207031 4.050781 -3.328125 3.4375 -3.453125 C 2.863281 -3.578125 2.375 -3.742188 1.96875 -3.953125 C 1.5625 -4.171875 1.253906 -4.441406 1.046875 -4.765625 C 0.847656 -5.097656 0.75 -5.492188 0.75 -5.953125 C 0.75 -6.367188 0.878906 -6.769531 1.140625 -7.15625 C 1.398438 -7.539062 1.785156 -7.859375 2.296875 -8.109375 C 2.816406 -8.359375 3.457031 -8.484375 4.21875 -8.484375 C 4.8125 -8.484375 5.328125 -8.410156 5.765625 -8.265625 C 6.210938 -8.117188 6.582031 -7.9375 6.875 -7.71875 C 7.175781 -7.5 7.40625 -7.273438 7.5625 -7.046875 C 7.71875 -6.816406 7.800781 -6.617188 7.8125 -6.453125 C 7.820312 -6.328125 7.785156 -6.226562 7.703125 -6.15625 C 7.628906 -6.082031 7.546875 -6.046875 7.453125 -6.046875 L 6.03125 -6.046875 C 5.976562 -6.046875 5.929688 -6.054688 5.890625 -6.078125 C 5.847656 -6.097656 5.8125 -6.125 5.78125 -6.15625 C 5.644531 -6.226562 5.507812 -6.320312 5.375 -6.4375 C 5.25 -6.5625 5.09375 -6.664062 4.90625 -6.75 C 4.726562 -6.832031 4.492188 -6.875 4.203125 -6.875 C 3.867188 -6.875 3.609375 -6.796875 3.421875 -6.640625 C 3.234375 -6.492188 3.140625 -6.300781 3.140625 -6.0625 C 3.140625 -5.914062 3.1875 -5.773438 3.28125 -5.640625 C 3.375 -5.515625 3.566406 -5.398438 3.859375 -5.296875 C 4.148438 -5.191406 4.609375 -5.078125 5.234375 -4.953125 C 5.953125 -4.828125 6.523438 -4.632812 6.953125 -4.375 C 7.378906 -4.125 7.679688 -3.828125 7.859375 -3.484375 C 8.046875 -3.148438 8.140625 -2.796875 8.140625 -2.421875 C 8.140625 -1.910156 7.992188 -1.460938 7.703125 -1.078125 C 7.410156 -0.691406 6.972656 -0.390625 6.390625 -0.171875 C 5.816406 0.046875 5.113281 0.15625 4.28125 0.15625 Z M 4.28125 0.15625" transform="translate(116.902 305.32)"/></g></g></g><g fill="#437B17"><g><g><path d="M 5.015625 0 C 4.347656 0 3.78125 -0.109375 3.3125 -0.328125 C 2.851562 -0.546875 2.5 -0.882812 2.25 -1.34375 C 2.007812 -1.800781 1.890625 -2.378906 1.890625 -3.078125 L 1.890625 -6.4375 L 0.640625 -6.4375 C 0.523438 -6.4375 0.425781 -6.472656 0.34375 -6.546875 C 0.269531 -6.617188 0.234375 -6.707031 0.234375 -6.8125 L 0.234375 -7.921875 C 0.234375 -8.035156 0.269531 -8.128906 0.34375 -8.203125 C 0.425781 -8.273438 0.523438 -8.3125 0.640625 -8.3125 L 1.890625 -8.3125 L 1.890625 -10.953125 C 1.890625 -11.078125 1.925781 -11.175781 2 -11.25 C 2.082031 -11.320312 2.175781 -11.359375 2.28125 -11.359375 L 3.875 -11.359375 C 3.976562 -11.359375 4.066406 -11.320312 4.140625 -11.25 C 4.210938 -11.175781 4.25 -11.078125 4.25 -10.953125 L 4.25 -8.3125 L 6.25 -8.3125 C 6.375 -8.3125 6.472656 -8.273438 6.546875 -8.203125 C 6.617188 -8.128906 6.65625 -8.035156 6.65625 -7.921875 L 6.65625 -6.8125 C 6.65625 -6.707031 6.617188 -6.617188 6.546875 -6.546875 C 6.472656 -6.472656 6.375 -6.4375 6.25 -6.4375 L 4.25 -6.4375 L 4.25 -3.265625 C 4.25 -2.859375 4.320312 -2.539062 4.46875 -2.3125 C 4.625 -2.082031 4.878906 -1.96875 5.234375 -1.96875 L 6.40625 -1.96875 C 6.519531 -1.96875 6.613281 -1.929688 6.6875 -1.859375 C 6.757812 -1.785156 6.796875 -1.691406 6.796875 -1.578125 L 6.796875 -0.40625 C 6.796875 -0.28125 6.757812 -0.179688 6.6875 -0.109375 C 6.613281 -0.0351562 6.519531 0 6.40625 0 Z M 5.015625 0" transform="translate(131.988 305.32)"/></g></g></g><g fill="#437B17"><g><g><path d="M 4.8125 0.15625 C 3.925781 0.15625 3.1875 0.0078125 2.59375 -0.28125 C 2 -0.570312 1.539062 -0.988281 1.21875 -1.53125 C 0.90625 -2.082031 0.734375 -2.71875 0.703125 -3.4375 C 0.691406 -3.65625 0.6875 -3.898438 0.6875 -4.171875 C 0.6875 -4.441406 0.691406 -4.675781 0.703125 -4.875 C 0.734375 -5.613281 0.914062 -6.25 1.25 -6.78125 C 1.582031 -7.320312 2.046875 -7.738281 2.640625 -8.03125 C 3.234375 -8.332031 3.957031 -8.484375 4.8125 -8.484375 C 5.65625 -8.484375 6.375 -8.332031 6.96875 -8.03125 C 7.570312 -7.738281 8.035156 -7.320312 8.359375 -6.78125 C 8.691406 -6.25 8.878906 -5.613281 8.921875 -4.875 C 8.929688 -4.675781 8.9375 -4.441406 8.9375 -4.171875 C 8.9375 -3.898438 8.929688 -3.65625 8.921875 -3.4375 C 8.878906 -2.71875 8.703125 -2.082031 8.390625 -1.53125 C 8.078125 -0.988281 7.617188 -0.570312 7.015625 -0.28125 C 6.421875 0.0078125 5.6875 0.15625 4.8125 0.15625 Z M 4.8125 -1.609375 C 5.332031 -1.609375 5.722656 -1.769531 5.984375 -2.09375 C 6.253906 -2.414062 6.40625 -2.890625 6.4375 -3.515625 C 6.445312 -3.679688 6.453125 -3.894531 6.453125 -4.15625 C 6.453125 -4.425781 6.445312 -4.640625 6.4375 -4.796875 C 6.40625 -5.421875 6.253906 -5.894531 5.984375 -6.21875 C 5.722656 -6.539062 5.332031 -6.703125 4.8125 -6.703125 C 4.289062 -6.703125 3.894531 -6.539062 3.625 -6.21875 C 3.363281 -5.894531 3.21875 -5.421875 3.1875 -4.796875 C 3.175781 -4.640625 3.171875 -4.425781 3.171875 -4.15625 C 3.171875 -3.894531 3.175781 -3.679688 3.1875 -3.515625 C 3.21875 -2.890625 3.363281 -2.414062 3.625 -2.09375 C 3.894531 -1.769531 4.289062 -1.609375 4.8125 -1.609375 Z M 4.8125 -1.609375" transform="translate(155.49 305.32)"/></g></g></g><g fill="#437B17"><g><g><path d="M 2.3125 0 C 2.195312 0 2.101562 -0.0351562 2.03125 -0.109375 C 1.957031 -0.179688 1.921875 -0.28125 1.921875 -0.40625 L 1.921875 -6.4375 L 0.671875 -6.4375 C 0.554688 -6.4375 0.457031 -6.472656 0.375 -6.546875 C 0.300781 -6.617188 0.265625 -6.707031 0.265625 -6.8125 L 0.265625 -7.921875 C 0.265625 -8.035156 0.300781 -8.128906 0.375 -8.203125 C 0.457031 -8.273438 0.554688 -8.3125 0.671875 -8.3125 L 1.921875 -8.3125 L 1.921875 -8.890625 C 1.921875 -9.578125 2.046875 -10.140625 2.296875 -10.578125 C 2.554688 -11.015625 2.929688 -11.332031 3.421875 -11.53125 C 3.921875 -11.738281 4.523438 -11.84375 5.234375 -11.84375 L 6.421875 -11.84375 C 6.523438 -11.84375 6.613281 -11.800781 6.6875 -11.71875 C 6.757812 -11.644531 6.796875 -11.550781 6.796875 -11.4375 L 6.796875 -10.34375 C 6.796875 -10.226562 6.757812 -10.132812 6.6875 -10.0625 C 6.613281 -9.988281 6.523438 -9.953125 6.421875 -9.953125 L 5.34375 -9.953125 C 4.945312 -9.953125 4.671875 -9.851562 4.515625 -9.65625 C 4.359375 -9.457031 4.28125 -9.175781 4.28125 -8.8125 L 4.28125 -8.3125 L 6.25 -8.3125 C 6.363281 -8.3125 6.457031 -8.273438 6.53125 -8.203125 C 6.601562 -8.128906 6.640625 -8.035156 6.640625 -7.921875 L 6.640625 -6.8125 C 6.640625 -6.707031 6.601562 -6.617188 6.53125 -6.546875 C 6.457031 -6.472656 6.363281 -6.4375 6.25 -6.4375 L 4.28125 -6.4375 L 4.28125 -0.40625 C 4.28125 -0.28125 4.242188 -0.179688 4.171875 -0.109375 C 4.097656 -0.0351562 4.003906 0 3.890625 0 Z M 2.3125 0" transform="translate(171.503 305.32)"/></g></g></g><g fill="#437B17"><g><g><path d="M 1.578125 0 C 1.460938 0 1.367188 -0.0351562 1.296875 -0.109375 C 1.222656 -0.179688 1.1875 -0.28125 1.1875 -0.40625 L 1.1875 -10.796875 C 1.1875 -10.910156 1.222656 -11.003906 1.296875 -11.078125 C 1.367188 -11.160156 1.460938 -11.203125 1.578125 -11.203125 L 3.09375 -11.203125 C 3.25 -11.203125 3.363281 -11.15625 3.4375 -11.0625 C 3.519531 -10.976562 3.570312 -10.914062 3.59375 -10.875 L 6.5625 -5.46875 L 9.515625 -10.875 C 9.535156 -10.914062 9.585938 -10.976562 9.671875 -11.0625 C 9.753906 -11.15625 9.875 -11.203125 10.03125 -11.203125 L 11.515625 -11.203125 C 11.640625 -11.203125 11.738281 -11.160156 11.8125 -11.078125 C 11.882812 -11.003906 11.921875 -10.910156 11.921875 -10.796875 L 11.921875 -0.40625 C 11.921875 -0.28125 11.882812 -0.179688 11.8125 -0.109375 C 11.738281 -0.0351562 11.640625 0 11.515625 0 L 9.890625 0 C 9.785156 0 9.691406 -0.0351562 9.609375 -0.109375 C 9.535156 -0.179688 9.5 -0.28125 9.5 -0.40625 L 9.5 -6.84375 L 7.46875 -3.0625 C 7.425781 -2.957031 7.363281 -2.867188 7.28125 -2.796875 C 7.195312 -2.722656 7.078125 -2.6875 6.921875 -2.6875 L 6.171875 -2.6875 C 6.035156 -2.6875 5.925781 -2.722656 5.84375 -2.796875 C 5.757812 -2.867188 5.6875 -2.957031 5.625 -3.0625 L 3.609375 -6.84375 L 3.609375 -0.40625 C 3.609375 -0.28125 3.570312 -0.179688 3.5 -0.109375 C 3.425781 -0.0351562 3.332031 0 3.21875 0 Z M 1.578125 0" transform="translate(194.684 305.32)"/></g></g></g><g fill="#437B17"><g><g><path d="M 4.0625 0.15625 C 3.445312 0.15625 2.898438 0.015625 2.421875 -0.265625 C 1.953125 -0.546875 1.582031 -0.953125 1.3125 -1.484375 C 1.039062 -2.023438 0.90625 -2.679688 0.90625 -3.453125 L 0.90625 -7.921875 C 0.90625 -8.035156 0.945312 -8.128906 1.03125 -8.203125 C 1.113281 -8.273438 1.207031 -8.3125 1.3125 -8.3125 L 3.03125 -8.3125 C 3.132812 -8.3125 3.222656 -8.273438 3.296875 -8.203125 C 3.367188 -8.128906 3.40625 -8.035156 3.40625 -7.921875 L 3.40625 -3.546875 C 3.40625 -2.359375 3.925781 -1.765625 4.96875 -1.765625 C 5.476562 -1.765625 5.878906 -1.921875 6.171875 -2.234375 C 6.460938 -2.546875 6.609375 -2.984375 6.609375 -3.546875 L 6.609375 -7.921875 C 6.609375 -8.035156 6.644531 -8.128906 6.71875 -8.203125 C 6.789062 -8.273438 6.890625 -8.3125 7.015625 -8.3125 L 8.703125 -8.3125 C 8.804688 -8.3125 8.894531 -8.273438 8.96875 -8.203125 C 9.050781 -8.128906 9.09375 -8.035156 9.09375 -7.921875 L 9.09375 -0.40625 C 9.09375 -0.28125 9.050781 -0.179688 8.96875 -0.109375 C 8.894531 -0.0351562 8.804688 0 8.703125 0 L 7.125 0 C 7.007812 0 6.914062 -0.0351562 6.84375 -0.109375 C 6.769531 -0.179688 6.734375 -0.28125 6.734375 -0.40625 L 6.734375 -1.03125 C 6.453125 -0.644531 6.09375 -0.347656 5.65625 -0.140625 C 5.226562 0.0546875 4.695312 0.15625 4.0625 0.15625 Z M 4.0625 0.15625" transform="translate(214.185 305.32)"/></g></g></g><g fill="#437B17"><g><g><path d="M 1.40625 0 C 1.289062 0 1.195312 -0.0351562 1.125 -0.109375 C 1.050781 -0.179688 1.015625 -0.28125 1.015625 -0.40625 L 1.015625 -10.953125 C 1.015625 -11.078125 1.050781 -11.175781 1.125 -11.25 C 1.195312 -11.320312 1.289062 -11.359375 1.40625 -11.359375 L 3.015625 -11.359375 C 3.128906 -11.359375 3.222656 -11.320312 3.296875 -11.25 C 3.367188 -11.175781 3.40625 -11.078125 3.40625 -10.953125 L 3.40625 -0.40625 C 3.40625 -0.28125 3.367188 -0.179688 3.296875 -0.109375 C 3.222656 -0.0351562 3.128906 0 3.015625 0 Z M 1.40625 0" transform="translate(230.679 305.32)"/></g></g></g><g fill="#437B17"><g><g><path d="M 5.015625 0 C 4.347656 0 3.78125 -0.109375 3.3125 -0.328125 C 2.851562 -0.546875 2.5 -0.882812 2.25 -1.34375 C 2.007812 -1.800781 1.890625 -2.378906 1.890625 -3.078125 L 1.890625 -6.4375 L 0.640625 -6.4375 C 0.523438 -6.4375 0.425781 -6.472656 0.34375 -6.546875 C 0.269531 -6.617188 0.234375 -6.707031 0.234375 -6.8125 L 0.234375 -7.921875 C 0.234375 -8.035156 0.269531 -8.128906 0.34375 -8.203125 C 0.425781 -8.273438 0.523438 -8.3125 0.640625 -8.3125 L 1.890625 -8.3125 L 1.890625 -10.953125 C 1.890625 -11.078125 1.925781 -11.175781 2 -11.25 C 2.082031 -11.320312 2.175781 -11.359375 2.28125 -11.359375 L 3.875 -11.359375 C 3.976562 -11.359375 4.066406 -11.320312 4.140625 -11.25 C 4.210938 -11.175781 4.25 -11.078125 4.25 -10.953125 L 4.25 -8.3125 L 6.25 -8.3125 C 6.375 -8.3125 6.472656 -8.273438 6.546875 -8.203125 C 6.617188 -8.128906 6.65625 -8.035156 6.65625 -7.921875 L 6.65625 -6.8125 C 6.65625 -6.707031 6.617188 -6.617188 6.546875 -6.546875 C 6.472656 -6.472656 6.375 -6.4375 6.25 -6.4375 L 4.25 -6.4375 L 4.25 -3.265625 C 4.25 -2.859375 4.320312 -2.539062 4.46875 -2.3125 C 4.625 -2.082031 4.878906 -1.96875 5.234375 -1.96875 L 6.40625 -1.96875 C 6.519531 -1.96875 6.613281 -1.929688 6.6875 -1.859375 C 6.757812 -1.785156 6.796875 -1.691406 6.796875 -1.578125 L 6.796875 -0.40625 C 6.796875 -0.28125 6.757812 -0.179688 6.6875 -0.109375 C 6.613281 -0.0351562 6.519531 0 6.40625 0 Z M 5.015625 0" transform="translate(241.494 305.32)"/></g></g></g><g fill="#437B17"><g><g><path d="M 1.390625 0 C 1.285156 0 1.191406 -0.0351562 1.109375 -0.109375 C 1.023438 -0.179688 0.984375 -0.28125 0.984375 -0.40625 L 0.984375 -7.921875 C 0.984375 -8.035156 1.023438 -8.128906 1.109375 -8.203125 C 1.191406 -8.273438 1.285156 -8.3125 1.390625 -8.3125 L 3.015625 -8.3125 C 3.117188 -8.3125 3.207031 -8.273438 3.28125 -8.203125 C 3.351562 -8.128906 3.390625 -8.035156 3.390625 -7.921875 L 3.390625 -0.40625 C 3.390625 -0.28125 3.351562 -0.179688 3.28125 -0.109375 C 3.207031 -0.0351562 3.117188 0 3.015625 0 Z M 1.34375 -9.59375 C 1.238281 -9.59375 1.144531 -9.628906 1.0625 -9.703125 C 0.988281 -9.785156 0.953125 -9.882812 0.953125 -10 L 0.953125 -11.296875 C 0.953125 -11.398438 0.988281 -11.492188 1.0625 -11.578125 C 1.144531 -11.660156 1.238281 -11.703125 1.34375 -11.703125 L 3.046875 -11.703125 C 3.148438 -11.703125 3.238281 -11.660156 3.3125 -11.578125 C 3.394531 -11.492188 3.4375 -11.398438 3.4375 -11.296875 L 3.4375 -10 C 3.4375 -9.882812 3.394531 -9.785156 3.3125 -9.703125 C 3.238281 -9.628906 3.148438 -9.59375 3.046875 -9.59375 Z M 1.34375 -9.59375" transform="translate(255.06 305.32)"/></g></g></g><g fill="#437B17"><g><g><path d="M 1.40625 3.046875 C 1.289062 3.046875 1.195312 3.003906 1.125 2.921875 C 1.050781 2.847656 1.015625 2.753906 1.015625 2.640625 L 1.015625 -7.921875 C 1.015625 -8.035156 1.050781 -8.128906 1.125 -8.203125 C 1.195312 -8.273438 1.289062 -8.3125 1.40625 -8.3125 L 2.921875 -8.3125 C 3.046875 -8.3125 3.144531 -8.273438 3.21875 -8.203125 C 3.289062 -8.128906 3.328125 -8.035156 3.328125 -7.921875 L 3.328125 -7.3125 C 3.585938 -7.65625 3.921875 -7.9375 4.328125 -8.15625 C 4.734375 -8.375 5.242188 -8.484375 5.859375 -8.484375 C 6.398438 -8.484375 6.875 -8.394531 7.28125 -8.21875 C 7.695312 -8.039062 8.046875 -7.785156 8.328125 -7.453125 C 8.609375 -7.128906 8.828125 -6.738281 8.984375 -6.28125 C 9.148438 -5.820312 9.242188 -5.304688 9.265625 -4.734375 C 9.273438 -4.535156 9.28125 -4.34375 9.28125 -4.15625 C 9.28125 -3.976562 9.273438 -3.78125 9.265625 -3.5625 C 9.242188 -3.019531 9.15625 -2.519531 9 -2.0625 C 8.84375 -1.601562 8.617188 -1.207031 8.328125 -0.875 C 8.046875 -0.550781 7.695312 -0.296875 7.28125 -0.109375 C 6.875 0.0664062 6.398438 0.15625 5.859375 0.15625 C 5.304688 0.15625 4.832031 0.0546875 4.4375 -0.140625 C 4.039062 -0.335938 3.710938 -0.601562 3.453125 -0.9375 L 3.453125 2.640625 C 3.453125 2.753906 3.414062 2.847656 3.34375 2.921875 C 3.269531 3.003906 3.175781 3.046875 3.0625 3.046875 Z M 5.125 -1.765625 C 5.53125 -1.765625 5.847656 -1.847656 6.078125 -2.015625 C 6.316406 -2.191406 6.484375 -2.425781 6.578125 -2.71875 C 6.679688 -3.007812 6.742188 -3.320312 6.765625 -3.65625 C 6.785156 -3.988281 6.785156 -4.320312 6.765625 -4.65625 C 6.742188 -5 6.679688 -5.3125 6.578125 -5.59375 C 6.484375 -5.882812 6.316406 -6.117188 6.078125 -6.296875 C 5.847656 -6.472656 5.53125 -6.5625 5.125 -6.5625 C 4.726562 -6.5625 4.410156 -6.46875 4.171875 -6.28125 C 3.929688 -6.101562 3.753906 -5.875 3.640625 -5.59375 C 3.523438 -5.320312 3.460938 -5.023438 3.453125 -4.703125 C 3.441406 -4.515625 3.4375 -4.316406 3.4375 -4.109375 C 3.4375 -3.910156 3.441406 -3.707031 3.453125 -3.5 C 3.460938 -3.207031 3.523438 -2.925781 3.640625 -2.65625 C 3.765625 -2.394531 3.945312 -2.179688 4.1875 -2.015625 C 4.4375 -1.847656 4.75 -1.765625 5.125 -1.765625 Z M 5.125 -1.765625" transform="translate(265.859 305.32)"/></g></g></g><g fill="#437B17"><g><g><path d="M 1.40625 0 C 1.289062 0 1.195312 -0.0351562 1.125 -0.109375 C 1.050781 -0.179688 1.015625 -0.28125 1.015625 -0.40625 L 1.015625 -10.953125 C 1.015625 -11.078125 1.050781 -11.175781 1.125 -11.25 C 1.195312 -11.320312 1.289062 -11.359375 1.40625 -11.359375 L 3.015625 -11.359375 C 3.128906 -11.359375 3.222656 -11.320312 3.296875 -11.25 C 3.367188 -11.175781 3.40625 -11.078125 3.40625 -10.953125 L 3.40625 -0.40625 C 3.40625 -0.28125 3.367188 -0.179688 3.296875 -0.109375 C 3.222656 -0.0351562 3.128906 0 3.015625 0 Z M 1.40625 0" transform="translate(282.208 305.32)"/></g></g></g><g fill="#437B17"><g><g><path d="M 4.71875 0.15625 C 3.488281 0.15625 2.515625 -0.179688 1.796875 -0.859375 C 1.078125 -1.546875 0.695312 -2.539062 0.65625 -3.84375 C 0.65625 -3.925781 0.65625 -4.039062 0.65625 -4.1875 C 0.65625 -4.332031 0.65625 -4.441406 0.65625 -4.515625 C 0.695312 -5.347656 0.882812 -6.054688 1.21875 -6.640625 C 1.550781 -7.234375 2.015625 -7.6875 2.609375 -8 C 3.203125 -8.320312 3.898438 -8.484375 4.703125 -8.484375 C 5.609375 -8.484375 6.359375 -8.296875 6.953125 -7.921875 C 7.554688 -7.554688 8.007812 -7.054688 8.3125 -6.421875 C 8.613281 -5.785156 8.765625 -5.054688 8.765625 -4.234375 L 8.765625 -3.875 C 8.765625 -3.769531 8.726562 -3.675781 8.65625 -3.59375 C 8.582031 -3.507812 8.488281 -3.46875 8.375 -3.46875 L 3.15625 -3.46875 C 3.15625 -3.46875 3.15625 -3.453125 3.15625 -3.421875 C 3.15625 -3.398438 3.15625 -3.378906 3.15625 -3.359375 C 3.164062 -3.015625 3.226562 -2.703125 3.34375 -2.421875 C 3.457031 -2.140625 3.628906 -1.910156 3.859375 -1.734375 C 4.085938 -1.566406 4.367188 -1.484375 4.703125 -1.484375 C 4.960938 -1.484375 5.175781 -1.523438 5.34375 -1.609375 C 5.507812 -1.691406 5.648438 -1.78125 5.765625 -1.875 C 5.878906 -1.976562 5.960938 -2.066406 6.015625 -2.140625 C 6.109375 -2.253906 6.1875 -2.328125 6.25 -2.359375 C 6.3125 -2.390625 6.398438 -2.40625 6.515625 -2.40625 L 8.203125 -2.40625 C 8.304688 -2.40625 8.390625 -2.367188 8.453125 -2.296875 C 8.523438 -2.234375 8.554688 -2.15625 8.546875 -2.0625 C 8.535156 -1.882812 8.445312 -1.671875 8.28125 -1.421875 C 8.113281 -1.171875 7.867188 -0.921875 7.546875 -0.671875 C 7.234375 -0.429688 6.835938 -0.234375 6.359375 -0.078125 C 5.878906 0.078125 5.332031 0.15625 4.71875 0.15625 Z M 3.15625 -4.9375 L 6.265625 -4.9375 L 6.265625 -4.984375 C 6.265625 -5.359375 6.203125 -5.6875 6.078125 -5.96875 C 5.960938 -6.257812 5.785156 -6.484375 5.546875 -6.640625 C 5.316406 -6.796875 5.035156 -6.875 4.703125 -6.875 C 4.367188 -6.875 4.085938 -6.796875 3.859375 -6.640625 C 3.628906 -6.484375 3.453125 -6.257812 3.328125 -5.96875 C 3.210938 -5.6875 3.15625 -5.359375 3.15625 -4.984375 Z M 3.15625 -4.9375" transform="translate(293.023 305.32)"/></g></g></g><g fill="#437B17"><g><g><path d="M 4.28125 0.15625 C 3.625 0.15625 3.054688 0.0820312 2.578125 -0.0625 C 2.109375 -0.21875 1.722656 -0.40625 1.421875 -0.625 C 1.128906 -0.851562 0.910156 -1.082031 0.765625 -1.3125 C 0.628906 -1.539062 0.554688 -1.738281 0.546875 -1.90625 C 0.535156 -2.019531 0.570312 -2.113281 0.65625 -2.1875 C 0.738281 -2.257812 0.820312 -2.296875 0.90625 -2.296875 L 2.46875 -2.296875 C 2.507812 -2.296875 2.539062 -2.289062 2.5625 -2.28125 C 2.59375 -2.269531 2.628906 -2.242188 2.671875 -2.203125 C 2.804688 -2.109375 2.945312 -2 3.09375 -1.875 C 3.238281 -1.757812 3.410156 -1.65625 3.609375 -1.5625 C 3.816406 -1.476562 4.066406 -1.4375 4.359375 -1.4375 C 4.703125 -1.4375 4.992188 -1.507812 5.234375 -1.65625 C 5.472656 -1.800781 5.59375 -2.003906 5.59375 -2.265625 C 5.59375 -2.460938 5.539062 -2.625 5.4375 -2.75 C 5.332031 -2.875 5.125 -2.988281 4.8125 -3.09375 C 4.507812 -3.207031 4.050781 -3.328125 3.4375 -3.453125 C 2.863281 -3.578125 2.375 -3.742188 1.96875 -3.953125 C 1.5625 -4.171875 1.253906 -4.441406 1.046875 -4.765625 C 0.847656 -5.097656 0.75 -5.492188 0.75 -5.953125 C 0.75 -6.367188 0.878906 -6.769531 1.140625 -7.15625 C 1.398438 -7.539062 1.785156 -7.859375 2.296875 -8.109375 C 2.816406 -8.359375 3.457031 -8.484375 4.21875 -8.484375 C 4.8125 -8.484375 5.328125 -8.410156 5.765625 -8.265625 C 6.210938 -8.117188 6.582031 -7.9375 6.875 -7.71875 C 7.175781 -7.5 7.40625 -7.273438 7.5625 -7.046875 C 7.71875 -6.816406 7.800781 -6.617188 7.8125 -6.453125 C 7.820312 -6.328125 7.785156 -6.226562 7.703125 -6.15625 C 7.628906 -6.082031 7.546875 -6.046875 7.453125 -6.046875 L 6.03125 -6.046875 C 5.976562 -6.046875 5.929688 -6.054688 5.890625 -6.078125 C 5.847656 -6.097656 5.8125 -6.125 5.78125 -6.15625 C 5.644531 -6.226562 5.507812 -6.320312 5.375 -6.4375 C 5.25 -6.5625 5.09375 -6.664062 4.90625 -6.75 C 4.726562 -6.832031 4.492188 -6.875 4.203125 -6.875 C 3.867188 -6.875 3.609375 -6.796875 3.421875 -6.640625 C 3.234375 -6.492188 3.140625 -6.300781 3.140625 -6.0625 C 3.140625 -5.914062 3.1875 -5.773438 3.28125 -5.640625 C 3.375 -5.515625 3.566406 -5.398438 3.859375 -5.296875 C 4.148438 -5.191406 4.609375 -5.078125 5.234375 -4.953125 C 5.953125 -4.828125 6.523438 -4.632812 6.953125 -4.375 C 7.378906 -4.125 7.679688 -3.828125 7.859375 -3.484375 C 8.046875 -3.148438 8.140625 -2.796875 8.140625 -2.421875 C 8.140625 -1.910156 7.992188 -1.460938 7.703125 -1.078125 C 7.410156 -0.691406 6.972656 -0.390625 6.390625 -0.171875 C 5.816406 0.046875 5.113281 0.15625 4.28125 0.15625 Z M 4.28125 0.15625" transform="translate(308.797 305.32)"/></g></g></g></svg>